<svg width="24" height="26" viewBox="0 0 24 26" fill="none" xmlns="http://www.w3.org/2000/svg">
<g clip-path="url(#clip0_3467_6029)">
<path d="M23.9979 13.4005C23.9979 17.1656 23.9979 20.9313 23.9979 24.6964C23.9979 25.3143 23.8267 25.5246 23.1933 25.6751C22.7967 25.7694 22.3973 25.8528 22.0029 25.9519C21.7368 26.0183 21.4807 26.0143 21.2154 25.9451C20.8217 25.8427 20.4201 25.766 20.0257 25.6643C19.7603 25.5958 19.5057 25.5937 19.2411 25.6711C18.9865 25.745 18.7133 25.7681 18.4672 25.8596C17.816 26.1018 17.1855 25.9702 16.5663 25.7782C15.9686 25.5931 15.3866 25.5829 14.7974 25.7864C14.0792 26.0353 13.3573 26.0461 12.6384 25.7911C12.0307 25.5761 11.4265 25.5822 10.8203 25.7925C10.0999 26.0421 9.38017 26.0353 8.66049 25.7864C8.07204 25.5829 7.48003 25.5686 6.89444 25.7864C6.08773 26.0868 5.301 25.9566 4.49929 25.747C3.48502 25.4825 3.40442 25.412 3.40442 24.419C3.40442 17.0069 3.40442 9.5941 3.40442 2.18201C3.40442 1.97106 3.41013 1.75945 3.3331 1.55529C3.12839 1.012 2.53994 0.66201 1.94722 0.735941C1.32882 0.812585 0.856635 1.28602 0.813126 1.87407C0.806706 1.95818 0.805993 2.04296 0.805993 2.12774C0.805993 7.54303 0.805993 12.9583 0.805993 18.3736C0.805993 19.0763 1.12482 19.3835 1.87375 19.4093C1.89159 19.4093 1.90942 19.4093 1.92725 19.4107C2.15906 19.4283 2.31598 19.5768 2.32026 19.781C2.32454 19.9852 2.1719 20.1418 1.94294 20.169C0.972184 20.2849 0.0770344 19.5816 0.0114139 18.649C0.00428123 18.5479 0.00285469 18.4462 0.00285469 18.3444C0.00356796 12.9468 0.00713429 7.54845 1.62543e-06 2.15013C-0.000711641 1.41624 0.23324 0.805802 0.862341 0.360181C1.1826 0.132961 1.53567 0.01223 1.95007 0.0129082C8.59701 0.0196909 15.2439 0.032578 21.8909 2.11526e-05C22.8238 -0.00472671 23.9758 0.790202 23.9943 1.97785C24.005 2.67171 23.9979 3.36558 23.9979 4.05945C23.9979 7.17337 23.9979 10.2873 23.9979 13.4012V13.4005ZM3.75678 0.72848C4.14194 1.21141 4.21184 1.70993 4.21113 2.23898C4.20542 9.59207 4.20756 16.9452 4.20756 24.2983C4.20756 24.885 4.21042 24.8761 4.79743 25.0267C5.38374 25.1766 5.96149 25.3034 6.56348 25.0789C7.37518 24.7764 8.19472 24.8008 9.00713 25.0844C9.52211 25.2634 10.025 25.2302 10.5392 25.0722C11.2411 24.8565 11.9494 24.7432 12.6755 25.0111C13.3516 25.2607 14.0364 25.2614 14.7233 25.0186C15.3631 24.7927 16.0086 24.7995 16.6512 25.0186C16.709 25.0382 16.7746 25.0396 16.8324 25.0586C17.3481 25.2302 17.8616 25.2668 18.3909 25.0925C18.6833 24.9962 18.995 24.9548 19.2953 24.8775C19.525 24.8185 19.7475 24.8219 19.9786 24.8775C20.8944 25.0959 21.8081 25.4031 22.7546 24.9948C22.8103 24.9711 22.8745 24.9548 22.9351 24.9521C23.1505 24.9426 23.199 24.8375 23.199 24.6415C23.194 17.1446 23.1954 9.64769 23.1947 2.15081C23.1947 2.03279 23.1926 1.91273 23.1683 1.79743C23.0271 1.1273 22.4786 0.729158 21.6969 0.729158C15.8153 0.72848 9.93367 0.729158 4.05207 0.729158C3.97432 0.729158 3.89586 0.729158 3.75749 0.729158L3.75678 0.72848Z" fill="#EA3940"/>
<path d="M11.0821 15.0472C9.4287 15.0472 7.77464 15.0472 6.12128 15.0472C6.0414 15.0472 5.96009 15.054 5.88163 15.0424C5.6705 15.0133 5.5414 14.8925 5.52856 14.6904C5.51501 14.4734 5.64411 14.3424 5.86023 14.2936C5.92799 14.278 6.00146 14.2855 6.07278 14.2855C9.41515 14.2855 12.7582 14.2855 16.1006 14.2855C16.1805 14.2855 16.2639 14.278 16.3395 14.297C16.5443 14.3479 16.6641 14.4801 16.6541 14.6823C16.6448 14.883 16.5214 15.0099 16.3089 15.0411C16.2304 15.0526 16.1491 15.0458 16.0692 15.0458C14.4066 15.0458 12.7447 15.0458 11.0821 15.0458V15.0472Z" fill="#EA3940"/>
<path d="M11.1034 17.4662C12.7496 17.4662 14.3959 17.4662 16.0421 17.4662C16.1398 17.4662 16.2389 17.4628 16.3352 17.477C16.5278 17.5055 16.6341 17.6269 16.6526 17.8033C16.6726 17.9918 16.5834 18.1383 16.388 18.1933C16.2796 18.2238 16.1598 18.2252 16.0456 18.2258C12.7446 18.2272 9.44294 18.2272 6.14194 18.2272C5.71612 18.2272 5.51783 18.099 5.52639 17.8318C5.53423 17.5754 5.71683 17.4662 6.13908 17.4662C7.79386 17.4662 9.44935 17.4662 11.1041 17.4662H11.1034Z" fill="#EA3940"/>
<path d="M11.0935 11.1143C12.7468 11.1143 14.4002 11.1143 16.0535 11.1143C16.4651 11.1143 16.6555 11.2336 16.6584 11.49C16.6612 11.7491 16.4629 11.8807 16.0628 11.8807C12.7475 11.8807 9.43227 11.8807 6.117 11.88C6.02 11.88 5.92014 11.8773 5.82671 11.8556C5.62913 11.8095 5.52357 11.6772 5.52927 11.4873C5.53569 11.2859 5.65481 11.157 5.86879 11.1265C5.96508 11.1129 6.06351 11.1149 6.16123 11.1149C7.80531 11.1149 9.4501 11.1149 11.0942 11.1149L11.0935 11.1143Z" fill="#EA3940"/>
<path d="M11.0934 21.3959C9.44009 21.3959 7.78603 21.3959 6.13268 21.3959C6.05279 21.3959 5.97148 21.4014 5.89302 21.3919C5.66834 21.3647 5.53496 21.2393 5.52854 21.0249C5.52212 20.8079 5.65764 20.6817 5.8759 20.641C5.95293 20.6268 6.03567 20.6336 6.11556 20.6336C9.43153 20.6336 12.7475 20.6336 16.0635 20.6336C16.1519 20.6336 16.2447 20.6254 16.3288 20.6444C16.5464 20.6939 16.6705 20.8309 16.6534 21.046C16.6377 21.2467 16.5086 21.3681 16.2939 21.3919C16.2061 21.4014 16.1163 21.3966 16.0271 21.3966C14.3823 21.3966 12.7375 21.3966 11.0934 21.3966V21.3959Z" fill="#EA3940"/>
<path d="M8.12485 4.84005C8.63841 5.16223 8.79247 5.64922 8.60702 6.28611C8.47435 6.73988 8.12485 6.97116 7.53356 6.98269C7.14269 6.99016 6.75181 6.98948 6.36094 6.98405C6.06137 6.9793 5.99575 6.91555 5.99575 6.64153C5.99433 5.55155 6.00003 4.46158 5.99147 3.3716C5.99005 3.14913 6.07706 3.02704 6.30602 3.02569C6.77607 3.02365 7.24754 2.99245 7.71686 3.04807C8.1006 3.09351 8.40517 3.25087 8.50788 3.6246C8.62343 4.04512 8.59775 4.44801 8.21686 4.76137C8.1919 4.7824 8.16694 4.8041 8.12557 4.84005H8.12485ZM6.72614 5.73197C6.72614 6.3926 6.72614 6.38989 7.37521 6.36818C7.64768 6.35937 7.82742 6.2522 7.89661 5.99175C7.9822 5.67093 7.91016 5.30941 7.70617 5.20292C7.41943 5.05303 7.0842 5.06795 6.80174 5.14798C6.61986 5.19953 6.76037 5.48101 6.72614 5.65533C6.72114 5.67974 6.72614 5.70552 6.72614 5.73061V5.73197ZM7.1434 3.63952C6.68762 3.64494 6.72828 3.58458 6.72614 4.00036C6.724 4.61893 6.76965 4.65149 7.4337 4.55653C7.66123 4.52398 7.77821 4.39714 7.81244 4.19298C7.87592 3.81587 7.66123 3.6402 7.14268 3.63952H7.1434Z" fill="#EA3940"/>
<path d="M10.6198 4.99535C10.6198 4.45409 10.6177 3.91351 10.6206 3.37226C10.622 3.11316 10.7218 3.02295 10.99 3.02295C11.2589 3.02295 11.3567 3.1118 11.3574 3.37158C11.3588 4.28453 11.3659 5.19815 11.3524 6.11042C11.3495 6.32746 11.4223 6.3824 11.6377 6.37223C11.9743 6.35595 12.3131 6.37494 12.6512 6.36545C12.8902 6.35867 12.9686 6.4855 12.9693 6.67949C12.9701 6.87686 12.8838 6.99217 12.6477 6.98878C12.0963 6.97996 11.545 6.99013 10.9943 6.98335C10.6819 6.97996 10.6213 6.91552 10.6198 6.61912C10.6177 6.07786 10.6198 5.53728 10.6198 4.99603V4.99535Z" fill="#EA3940"/>
<path d="M13.378 5.00015C13.378 4.46704 13.3773 3.9346 13.378 3.40148C13.378 3.11932 13.4707 3.02572 13.7453 3.02301C14.0228 3.02029 14.1205 3.11457 14.1212 3.3913C14.1219 4.30493 14.1269 5.21856 14.1169 6.1315C14.1148 6.3187 14.1619 6.38178 14.3659 6.37229C14.7118 6.35533 15.0599 6.37364 15.4065 6.3655C15.6383 6.36008 15.7282 6.46928 15.7289 6.67344C15.7296 6.87556 15.6483 6.98951 15.4137 6.9868C14.8623 6.98001 14.311 6.98883 13.7596 6.98273C13.4344 6.97934 13.3794 6.91694 13.3787 6.59815C13.378 6.06503 13.3787 5.53259 13.3787 4.99948L13.378 5.00015Z" fill="#EA3940"/>
<path d="M9.19974 4.98776C9.19974 4.43904 9.19761 3.89032 9.20046 3.34228C9.20188 3.10964 9.30887 3.02078 9.5685 3.0235C9.82671 3.02553 9.93798 3.11642 9.93869 3.34839C9.94154 4.45396 9.94154 5.55954 9.93869 6.66511C9.93798 6.89708 9.82742 6.98186 9.56208 6.98118C9.29675 6.98051 9.20117 6.89979 9.20046 6.65901C9.19761 6.10215 9.19974 5.54529 9.19974 4.98776Z" fill="#EA3940"/>
<path d="M19.4365 15.0473C19.0364 15.0473 18.6363 15.0493 18.2361 15.0466C17.9444 15.0446 17.7647 14.9028 17.7575 14.6783C17.7504 14.4457 17.9394 14.2883 18.2418 14.2869C19.0507 14.2842 19.8595 14.2849 20.6684 14.2869C20.9751 14.2876 21.1627 14.4382 21.1605 14.6708C21.1584 14.9035 20.9729 15.0452 20.6627 15.0466C20.254 15.0486 19.8445 15.0466 19.4358 15.0466L19.4365 15.0473Z" fill="#EA3940"/>
<path d="M19.4864 17.4662C19.8858 17.4662 20.2859 17.4635 20.6854 17.4668C20.9771 17.4696 21.1568 17.614 21.1604 17.8365C21.164 18.059 20.9821 18.2224 20.6975 18.2245C19.8715 18.2299 19.0456 18.2299 18.2196 18.2245C17.9357 18.2224 17.7539 18.0576 17.7581 17.8358C17.7624 17.6134 17.9422 17.4696 18.2346 17.4668C18.6519 17.4628 19.0698 17.4662 19.4871 17.4662H19.4864Z" fill="#EA3940"/>
<path d="M19.4687 11.1149C19.8681 11.1149 20.2682 11.1116 20.6677 11.1163C20.9772 11.1197 21.1627 11.2682 21.1598 11.4982C21.157 11.7288 20.9729 11.878 20.6612 11.88C19.8617 11.8848 19.0621 11.8841 18.2625 11.88C17.9494 11.8787 17.764 11.7342 17.7568 11.5056C17.749 11.2689 17.9408 11.119 18.2689 11.1163C18.6684 11.1129 19.0685 11.1156 19.468 11.1156L19.4687 11.1149Z" fill="#EA3940"/>
</g>
<defs>
<clipPath id="clip0_3467_6029">
<rect width="24" height="26" fill="white"/>
</clipPath>
</defs>
</svg>
