<svg width="35" height="30" viewBox="0 0 35 30" fill="none" xmlns="http://www.w3.org/2000/svg">
<g clip-path="url(#clip0_3467_13850)">
<path d="M32.4034 10.434C32.1821 9.64912 31.5194 9.14462 30.6977 9.134C30.3916 9.12984 30.2386 8.96917 30.2386 8.65198C30.2386 7.93394 30.2417 7.21653 30.238 6.49849C30.2319 5.36336 29.4658 4.57914 28.3556 4.56915C27.9485 4.5654 27.5407 4.55853 27.1335 4.57227C26.9306 4.57914 26.8743 4.50921 26.8768 4.30566C26.8872 3.51519 26.8841 2.72472 26.8798 1.93426C26.8737 0.792261 26.1175 0.0111589 25.0042 0.00241755C24.8941 0.00179317 24.7847 0.00116879 24.6747 0.000544403V0.0217734H7.98472V-0.00195312C7.79764 -0.000704361 7.61057 0.000544403 7.4241 0.00179317C5.8621 0.0105345 4.77511 0.979575 4.54585 2.56238C4.53546 2.63231 4.51528 2.70037 4.5 2.76968V21.1889C4.53179 21.3706 4.55563 21.5542 4.59598 21.734C4.87476 22.9609 5.80585 23.8014 7.04445 23.9518C7.11415 23.9606 7.18201 23.9824 7.25048 23.9987H28.5256C28.6295 23.9169 28.7597 23.9437 28.8759 23.9106C29.67 23.6884 30.2233 22.9778 30.2343 22.1274C30.2447 21.2976 30.238 20.4672 30.2368 19.6374C30.2368 19.505 30.2331 19.4101 30.4177 19.3939C31.8373 19.2708 32.0812 19.0661 32.4994 17.6918V10.8236C32.4676 10.6937 32.4389 10.5626 32.4028 10.4333L32.4034 10.434ZM5.65852 2.66541C5.72393 1.83248 6.43371 1.16065 7.2786 1.14441C7.33057 1.14316 7.38253 1.14379 7.4345 1.14316V1.14629H22.8406V1.13942C23.5706 1.14504 24.3005 1.13817 25.0299 1.14441C25.47 1.14816 25.7592 1.43225 25.7653 1.88431C25.7769 2.70474 25.7653 3.52518 25.7727 4.34562C25.7745 4.52731 25.7085 4.57477 25.5416 4.57289C24.9926 4.56478 24.4436 4.56977 23.894 4.56977C23.8891 4.56977 23.8842 4.56977 23.8793 4.56977V4.58101H8.16812V4.56977C8.15712 4.56977 8.14672 4.56977 8.13572 4.56977C7.81293 4.55042 7.42594 4.60286 7.0414 4.53356C6.15677 4.37434 5.58454 3.60385 5.65852 2.66603V2.66541ZM29.132 19.776C29.1107 20.5034 29.1278 21.232 29.1241 21.9607C29.121 22.5538 28.8606 22.8236 28.2872 22.8236C21.3196 22.8248 14.352 22.8255 7.38437 22.823C6.35546 22.823 5.6524 22.1124 5.65118 21.0628C5.6469 15.8399 5.64873 10.6175 5.64934 5.39458C5.64934 5.3259 5.65913 5.25659 5.66891 5.13172C6.41843 5.72925 7.2621 5.70865 8.11188 5.70802C14.7946 5.70178 21.4767 5.70427 28.1594 5.70427C28.8967 5.70427 29.1247 5.93717 29.1247 6.69142C29.1247 7.40946 29.1149 8.1275 29.1302 8.84492C29.1351 9.0828 29.0624 9.13962 28.8368 9.13838C27.2375 9.12901 25.6382 9.12401 24.0389 9.13588C21.27 9.15586 19.0435 11.4661 19.0557 14.2926C19.0673 17.1042 21.2829 19.3714 24.0596 19.3963C25.6284 19.4101 27.1971 19.407 28.7658 19.392C29.0648 19.3889 29.1412 19.4788 29.132 19.776ZM30.5333 18.2593C29.4334 18.26 28.3336 18.2593 27.2332 18.2593C26.1945 18.2593 25.1552 18.2631 24.1165 18.2587C22.1241 18.25 20.4154 16.7352 20.2118 14.8021C19.9856 12.6518 21.2548 10.8148 23.2857 10.3584C23.5846 10.291 23.8885 10.2666 24.1954 10.2666C26.3039 10.2685 28.4119 10.2666 30.5204 10.2679C31.1361 10.2679 31.3494 10.4839 31.3494 11.1089C31.3506 13.21 31.3506 15.311 31.3494 17.4127C31.3494 18.0508 31.1477 18.2587 30.5327 18.2593H30.5333Z" fill="#2952A1"/>
<path d="M24.0934 12.5631C23.1696 12.56 22.4201 13.3161 22.4146 14.2564C22.4091 15.1993 23.1476 15.9666 24.0707 15.9766C25.0018 15.9866 25.7721 15.2093 25.7685 14.2633C25.7642 13.3236 25.0183 12.5662 24.0934 12.5625V12.5631ZM24.0903 14.8309C23.7797 14.8321 23.5254 14.5736 23.5291 14.2614C23.5327 13.9642 23.7791 13.7089 24.0714 13.6989C24.3782 13.6889 24.6399 13.9436 24.6442 14.2571C24.6491 14.5768 24.4051 14.829 24.0903 14.8303V14.8309Z" fill="#2952A1"/>
<path d="M11.5734 19.9424C10.6876 19.9424 9.80112 19.9443 8.91527 19.9418C8.49527 19.9405 8.25928 19.7332 8.25806 19.3767C8.25684 19.0189 8.49221 18.8104 8.9116 18.8098C10.7041 18.8079 12.4966 18.8085 14.2891 18.8098C14.7103 18.8098 14.9457 19.0158 14.9463 19.373C14.9469 19.7295 14.7097 19.9405 14.2927 19.9418C13.3861 19.9443 12.4801 19.9424 11.5734 19.9424Z" fill="#2952A1"/>
</g>
<circle cx="6.5" cy="22" r="6" fill="#2952A1"/>
<path d="M5.54882 21.9698C5.64982 22.0583 5.70655 22.1783 5.70655 22.3033C5.70655 22.4284 5.64982 22.5483 5.54882 22.6368L5.1986 22.9439H8.22401C8.36706 22.9439 8.50424 22.9936 8.60539 23.0821C8.70654 23.1706 8.76336 23.2906 8.76336 23.4158C8.76336 23.541 8.70654 23.661 8.60539 23.7495C8.50424 23.838 8.36706 23.8877 8.22401 23.8877H5.1986L5.54918 24.1941C5.65036 24.2827 5.7072 24.4027 5.7072 24.5279C5.7072 24.6531 5.65036 24.7732 5.54918 24.8617C5.44799 24.9503 5.31076 25 5.16767 25C5.02458 25 4.88735 24.9503 4.78617 24.8617L3.51509 23.7493C3.41398 23.6608 3.35718 23.5408 3.35718 23.4156C3.35718 23.2905 3.41398 23.1705 3.51509 23.082L4.78617 21.9695C4.83626 21.9257 4.89573 21.8909 4.96119 21.8672C5.02665 21.8434 5.09682 21.8312 5.16767 21.8312C5.23853 21.8312 5.30869 21.8434 5.37415 21.8672C5.43961 21.8909 5.49873 21.926 5.54882 21.9698ZM8.02265 19.1384C8.11699 19.0558 8.24299 19.0067 8.37629 19.0006C8.50959 18.9946 8.64071 19.032 8.74431 19.1056L8.7853 19.1381L10.0564 20.2505C10.1507 20.3331 10.2068 20.4434 10.2136 20.56C10.2205 20.6766 10.1776 20.7913 10.0934 20.8819L10.0564 20.9178L8.7853 22.0303C8.68777 22.1169 8.55581 22.1672 8.41692 22.1707C8.27803 22.1743 8.14292 22.1308 8.03977 22.0494C7.93662 21.9679 7.87337 21.8548 7.86321 21.7335C7.85306 21.6123 7.89678 21.4923 7.98526 21.3985L8.02229 21.3627L8.37287 21.0562H5.34746C5.20826 21.0571 5.07407 21.0108 4.97297 20.9271C4.87187 20.8433 4.81169 20.7287 4.805 20.607C4.79831 20.4853 4.84564 20.3661 4.93709 20.2743C5.02854 20.1825 5.15703 20.1251 5.29568 20.1143L5.34746 20.1124H8.37287L8.02229 19.8057C7.97217 19.7618 7.93241 19.7098 7.90529 19.6525C7.87816 19.5952 7.8642 19.5339 7.8642 19.4719C7.8642 19.4099 7.87816 19.3485 7.90529 19.2912C7.93241 19.2339 7.97253 19.1822 8.02265 19.1384Z" fill="white"/>
<defs>
<clipPath id="clip0_3467_13850">
<rect width="28" height="24" fill="white" transform="translate(4.5)"/>
</clipPath>
</defs>
</svg>
