<svg width="28" height="28" viewBox="0 0 28 28" fill="none" xmlns="http://www.w3.org/2000/svg">
<g clip-path="url(#clip0_3467_6104)">
<path d="M0 7.79032C0.0829839 7.72541 0.0705645 7.62041 0.100484 7.53573C0.463468 6.52129 1.58968 6.04089 2.5629 6.50097C2.71419 6.57266 2.76556 6.57605 2.83839 6.40444C3.1421 5.69145 3.85903 5.30363 4.56806 5.44476C5.3454 5.59944 5.86081 6.22266 5.86984 7.02597C5.87435 7.4296 5.8704 7.83323 5.8704 8.26452C6.17806 8.17532 6.4654 8.0946 6.76798 8.14202C7.55097 8.26508 8.11718 8.90581 8.12621 9.7046C8.13524 10.504 8.13355 11.3033 8.12508 12.1027C8.12282 12.2991 8.15726 12.3279 8.3554 12.2692C9.39355 11.9638 10.3775 12.7039 10.3848 13.7934C10.3933 15.1663 10.3894 16.5398 10.3843 17.9127C10.3837 18.0741 10.4272 18.1921 10.5401 18.3106C11.1492 18.9514 11.7408 19.6085 12.355 20.2441C12.8738 20.7815 13.1103 21.4053 13.103 22.1539C13.0855 23.8841 13.0923 25.6149 13.103 27.3452C13.1047 27.6206 13.0443 27.8397 12.8156 27.9994H7.05758C6.82839 27.8402 6.76064 27.6223 6.77024 27.3463C6.78831 26.8207 6.76177 26.294 6.77927 25.7685C6.79677 25.2536 6.61048 24.8489 6.24581 24.4898C5.1546 23.4161 4.07806 22.3266 2.99363 21.2467C2.85871 21.1123 2.74976 20.965 2.65944 20.7979C1.83073 19.2731 0.999758 17.749 0.165968 16.2265C0.118548 16.1395 0.0976613 16.0317 0.00112903 15.9752V7.78976L0 7.79032ZM2.70968 11.0256C2.70968 10.0941 2.71081 9.16266 2.70968 8.23178C2.70855 7.63621 2.33427 7.22468 1.80194 7.22694C1.26847 7.2292 0.904355 7.6379 0.90379 8.24081C0.902661 10.649 0.904355 13.0573 0.900968 15.4661C0.900968 15.6219 0.935968 15.7562 1.01105 15.8928C1.81548 17.3594 2.6154 18.8277 3.41363 20.2977C3.49097 20.44 3.58694 20.5631 3.70153 20.6771C4.78766 21.7598 5.86927 22.8465 6.95597 23.9281C7.44145 24.4114 7.68645 24.9883 7.67798 25.6742C7.6729 26.0598 7.68758 26.4459 7.6729 26.8309C7.665 27.0307 7.70564 27.1052 7.92919 27.103C9.26484 27.0911 10.601 27.0917 11.9367 27.103C12.1529 27.1047 12.1992 27.042 12.1981 26.8354C12.189 25.283 12.1817 23.7306 12.1998 22.1787C12.206 21.6452 12.0383 21.2219 11.6714 20.8352C10.4413 19.5385 9.22871 18.2248 8.00992 16.918C7.4454 16.3128 6.88258 15.7054 6.31355 15.1042C6.05105 14.827 5.66661 14.8389 5.49161 15.1177C5.35274 15.339 5.40016 16.1164 5.56613 16.3275C6.41403 17.4074 7.2625 18.4868 8.1104 19.5673C8.48524 20.0454 8.47734 20.0369 8.0071 20.4276C7.82927 20.5755 7.7429 20.5732 7.595 20.3841C6.03355 18.3818 4.46363 16.3862 2.89145 14.3918C2.76161 14.2269 2.70573 14.057 2.70685 13.8481C2.71363 12.9077 2.70968 11.9666 2.70968 11.0261V11.0256ZM4.54379 15.0274C4.62847 14.818 4.69847 14.6306 4.84016 14.4928C4.94516 14.3912 4.97056 14.28 4.97 14.1406C4.96661 11.7888 4.96887 9.43702 4.96661 7.08581C4.96661 6.62686 4.68097 6.3175 4.27847 6.32484C3.88613 6.33162 3.61403 6.63363 3.61403 7.08073C3.61177 9.27274 3.6129 11.4642 3.61347 13.6562C3.61347 13.7488 3.60613 13.8391 3.67331 13.9227C3.96064 14.2811 4.2429 14.6441 4.54435 15.028L4.54379 15.0274ZM7.17613 14.7198C7.20661 14.665 7.22242 14.6503 7.22242 14.6356C7.22411 12.9912 7.22919 11.3462 7.22129 9.70178C7.2196 9.30944 6.90121 9.02323 6.52863 9.03452C6.15774 9.04581 5.87548 9.33823 5.87379 9.74129C5.86871 11.0944 5.87379 12.4481 5.86758 13.8013C5.86702 13.9639 5.92234 14.0006 6.07306 14.0113C6.33048 14.0299 6.56984 14.1236 6.76516 14.2958C6.90911 14.4228 7.03387 14.5719 7.17556 14.7198H7.17613ZM9.48161 17.1715C9.48161 15.9775 9.48952 14.8615 9.4771 13.7454C9.47314 13.3694 9.15589 13.0923 8.7946 13.099C8.44516 13.1052 8.14427 13.3785 8.13524 13.7403C8.12 14.3596 8.13072 14.98 8.1279 15.5998C8.1279 15.6789 8.14484 15.7432 8.20129 15.8031C8.61169 16.2394 9.01984 16.6781 9.48161 17.172V17.1715Z" fill="#EDC046"/>
<path d="M15.1856 28C14.9564 27.8403 14.8965 27.6218 14.8982 27.3463C14.9084 25.5878 14.9101 23.8294 14.9005 22.0715C14.8965 21.3861 15.119 20.8069 15.5892 20.3107C16.2169 19.6491 16.8317 18.9757 17.4594 18.314C17.5718 18.1955 17.6169 18.0781 17.6164 17.9166C17.6107 16.6284 17.6672 15.3373 17.5977 14.0531C17.5328 12.8535 18.5264 11.8509 19.8716 12.3273V11.8543C19.8716 11.1774 19.8897 10.4994 19.8677 9.82316C19.827 8.55808 21.0582 7.83549 22.0027 8.23517C22.0348 8.24872 22.0738 8.24646 22.1297 8.25437C22.1297 7.85808 22.1286 7.47364 22.1297 7.0892C22.1331 6.24582 22.6157 5.62485 23.3981 5.45437C24.132 5.29461 24.836 5.67679 25.1713 6.4242C25.2181 6.52808 25.2368 6.61106 25.3807 6.53033C26.3686 5.97598 27.7099 6.5738 27.9566 7.74687C27.964 7.78187 27.9854 7.81461 28.0001 7.84791V15.9769C27.9081 16.0244 27.8917 16.1248 27.8482 16.2033C27.0144 17.7258 26.1829 19.2494 25.3553 20.7748C25.2554 20.9582 25.1369 21.1214 24.9884 21.2687C23.9096 22.3424 22.841 23.4257 21.7554 24.4921C21.3902 24.8511 21.2039 25.2553 21.2214 25.7702C21.2394 26.2957 21.2129 26.8224 21.2304 27.348C21.24 27.624 21.1711 27.8419 20.9431 28.0017H15.185L15.1856 28ZM27.0969 11.8221C27.0969 10.6276 27.0952 9.43251 27.0986 8.23799C27.0991 8.01614 27.0669 7.80783 26.9377 7.62211C26.7102 7.29469 26.3144 7.15187 25.9469 7.26364C25.536 7.38896 25.2927 7.7192 25.2921 8.17646C25.2898 10.058 25.2881 11.9395 25.2944 13.8211C25.2949 14.0503 25.2334 14.2343 25.0906 14.4149C23.5991 16.3049 22.1139 18.1994 20.6264 20.0928C20.2211 20.6088 20.2261 20.6026 19.7051 20.1973C19.5504 20.077 19.5402 20.0036 19.6627 19.8495C20.5118 18.7826 21.336 17.6953 22.2025 16.6425C22.4927 16.2903 22.6276 15.9414 22.5875 15.4943C22.5661 15.2549 22.5435 15.0387 22.2911 14.9405C22.0388 14.8423 21.8406 14.9354 21.6634 15.1262C19.8428 17.0811 18.0189 19.0332 16.1961 20.9865C15.9561 21.2439 15.8105 21.5459 15.8099 21.8998C15.8054 23.5652 15.8099 25.2299 15.8037 26.8953C15.8037 27.0561 15.8511 27.1013 16.0103 27.1007C17.3838 27.0951 18.7573 27.0945 20.1307 27.1007C20.3046 27.1013 20.3289 27.0307 20.3261 26.884C20.3181 26.508 20.3334 26.1309 20.3215 25.7555C20.2973 25.0041 20.5705 24.3899 21.1051 23.8644C22.1782 22.8093 23.2356 21.7378 24.3014 20.6748C24.4154 20.5608 24.5108 20.4372 24.5881 20.2949C25.3864 18.8255 26.1869 17.3566 26.9913 15.89C27.0664 15.7528 27.1002 15.6185 27.1002 15.4627C27.0963 14.249 27.098 13.0358 27.098 11.8221H27.0969ZM23.4602 15.0235C23.7617 14.6396 24.0496 14.2698 24.3409 13.9023C24.4013 13.8267 24.3866 13.7426 24.3866 13.6596C24.3877 11.4676 24.3883 9.27614 24.3866 7.08412C24.3866 6.62517 24.1004 6.31638 23.6979 6.32372C23.3056 6.33106 23.034 6.63308 23.034 7.08017C23.0318 9.44098 23.0329 11.8023 23.0335 14.1632C23.0335 14.2557 23.0199 14.3506 23.1018 14.4251C23.2728 14.5803 23.3569 14.7915 23.4608 15.0229L23.4602 15.0235ZM20.8014 14.6814C20.8194 14.6774 20.8426 14.6803 20.8516 14.6701C21.1672 14.3037 21.5228 14.0107 22.0388 13.9983C22.1602 13.9955 22.128 13.8967 22.128 13.8301C22.1297 12.4578 22.1325 11.0854 22.1257 9.71251C22.124 9.36251 21.8802 9.09437 21.5556 9.04074C21.1299 8.97074 20.7771 9.30211 20.776 9.78703C20.7731 11.3665 20.7743 12.9455 20.776 14.525C20.776 14.5769 20.7534 14.6368 20.8019 14.6819L20.8014 14.6814ZM18.5173 17.1748C18.9836 16.6753 19.3974 16.2304 19.8129 15.7878C19.8716 15.7252 19.8705 15.654 19.8705 15.579C19.8705 14.9778 19.8778 14.3765 19.8665 13.7753C19.8592 13.3807 19.5549 13.0934 19.1823 13.099C18.8222 13.1047 18.523 13.3881 18.5196 13.7674C18.5106 14.8756 18.5162 15.9837 18.5162 17.1748H18.5173Z" fill="#EDC046"/>
<path d="M17.3307 0C17.6349 0.086371 17.9477 0.150161 18.2418 0.2625C20.9385 1.29556 21.6526 4.82153 19.5594 6.8346C18.5703 7.78581 17.5356 8.68903 16.5206 9.61371C15.8116 10.2595 15.1025 10.9053 14.3924 11.5494C14.0943 11.8198 13.9052 11.8193 13.6071 11.5483C11.9237 10.0179 10.2398 8.48807 8.55865 6.95428C7.6447 6.12048 7.20268 5.07952 7.22809 3.84379C7.26647 1.96339 8.66026 0.36129 10.5164 0.0558871C10.5712 0.0468548 10.6304 0.0530645 10.6688 0H11.572C12.451 0.158629 13.2379 0.505807 13.8899 1.12847C13.9837 1.21823 14.0497 1.17758 14.1304 1.11097C14.3116 0.961936 14.4945 0.813468 14.6842 0.675161C15.2053 0.296371 15.8121 0.136048 16.4274 0C16.7283 0 17.0298 0 17.3307 0ZM8.12397 3.88669C8.1426 4.82548 8.41414 5.58024 9.03623 6.15718C10.6361 7.64073 12.2591 9.09944 13.8702 10.5711C13.9645 10.6569 14.0237 10.6699 14.1253 10.5773C15.7427 9.09831 17.3854 7.6475 18.9757 6.13968C20.1007 5.07274 20.1719 3.30129 19.2246 2.07234C18.3118 0.888548 16.682 0.562823 15.3763 1.30516C14.997 1.52081 14.6921 1.83185 14.3557 2.10339C14.0898 2.31847 13.9131 2.32129 13.6517 2.1079C13.4553 1.94702 13.2667 1.77653 13.068 1.61903C12.0874 0.841694 11.0064 0.666694 9.87341 1.20073C8.71897 1.74436 8.17986 2.71984 8.12454 3.88782L8.12397 3.88669Z" fill="#EDC046"/>
</g>
<defs>
<clipPath id="clip0_3467_6104">
<rect width="28" height="28" fill="white"/>
</clipPath>
</defs>
</svg>
