<svg width="36" height="32" viewBox="0 0 36 32" fill="none" xmlns="http://www.w3.org/2000/svg">
<path d="M27.0116 18.0527H26.2158C25.7476 18.0527 25.4199 18.4484 25.4199 18.8935C25.4199 19.3387 25.7944 19.7343 26.2158 19.7343H27.0116C27.4797 19.7343 27.8074 19.3387 27.8074 18.8935C27.8074 18.4484 27.4329 18.0527 27.0116 18.0527Z" fill="#2952A1"/>
<path d="M34.3615 13.0572V7.71561C34.3615 7.22102 33.987 6.87481 33.5657 6.87481H31.9272V3.41267C31.9272 2.91808 31.5527 2.57187 31.1313 2.57187H29.4929C29.0247 2.57187 28.697 2.96754 28.697 3.41267C28.697 3.90726 29.0715 4.25348 29.4929 4.25348H30.2887V6.82535H27.8544V4.25348C27.8544 3.75889 27.4798 3.41267 27.0585 3.41267H26.2627V0.840804C26.2627 0.346214 25.8882 0 25.4668 0H5.71131C5.24317 0 4.91547 0.395673 4.91547 0.840804V6.87481H2.85566C2.20026 6.87481 1.63849 6.2813 1.63849 5.58887C1.63849 4.89645 2.20026 4.30294 2.85566 4.30294H3.27698C3.74512 4.30294 4.07282 3.90726 4.07282 3.46213C4.07282 2.96754 3.69831 2.62133 3.27698 2.62133H2.85566C1.26398 2.62133 0 3.95672 0 5.63833V28.5379C0 30.4668 1.45124 32 3.27698 32H33.5657C34.0338 32 34.3615 31.6043 34.3615 31.1592V23.0974C35.2978 22.7512 36 21.8114 36 20.6739V15.4807C36 14.3926 35.2978 13.4034 34.3615 13.0572ZM10.6268 6.82535V5.09428H26.1691V6.82535H10.6268ZM6.55397 1.63215H24.5774V3.36321H9.83095C9.36281 3.36321 9.03511 3.75889 9.03511 4.20402V6.77589H6.60078V1.63215H6.55397ZM3.27698 30.17C2.38752 30.17 1.63849 29.3787 1.63849 28.4389V8.25966C2.013 8.4575 2.43433 8.55641 2.85566 8.55641H32.723V13.7496C32.723 13.898 32.6762 14.5904 31.9272 14.5904H26.1691C23.922 14.5904 22.0962 16.5193 22.0962 18.8934C22.0962 21.2674 23.922 23.1963 26.1691 23.1963H32.723V30.1206H3.27698V30.17ZM34.3615 20.6739C34.3615 21.1685 33.987 21.5147 33.5657 21.5147H26.1691C24.8114 21.5147 23.7347 20.3277 23.7347 18.9428C23.7347 17.5085 24.8583 16.3709 26.1691 16.3709H31.9272C33.0507 16.3709 33.7997 15.728 34.1274 14.9366C34.2679 15.085 34.3615 15.2828 34.3615 15.4807V20.6739Z" fill="#2952A1"/>
</svg>
