<svg width="15" height="15" viewBox="0 0 15 15" fill="none" xmlns="http://www.w3.org/2000/svg">
<g clip-path="url(#clip0_1855_6620)">
<path d="M11 1.94375C9.97187 1.30937 8.79062 0.9375 7.5 0.9375V1.94375H11Z" fill="#ED4C5C"/>
<path d="M7.5 2.94961H12.225C11.8531 2.57773 11.4375 2.22773 11 1.94336H7.5V2.94961Z" fill="white"/>
<path d="M7.5 3.95547H13.0344C12.7937 3.58359 12.5312 3.25547 12.2469 2.94922H7.5V3.95547Z" fill="#ED4C5C"/>
<path d="M7.5 4.96328H13.5594C13.4062 4.61328 13.2312 4.26328 13.0344 3.95703H7.5V4.96328Z" fill="white"/>
<path d="M7.5 5.96914H13.8875C13.8 5.61914 13.6906 5.29102 13.5594 4.96289H7.5V5.96914Z" fill="#ED4C5C"/>
<path d="M7.5 6.99648H14.0406C14.0188 6.64648 13.9531 6.31836 13.8875 5.99023H7.5V6.99648Z" fill="white"/>
<path d="M14.0406 6.99609H7.5V7.49922H0.9375C0.9375 7.67422 0.9375 7.82734 0.959375 8.00234H14.0406C14.0625 7.82734 14.0625 7.67422 14.0625 7.49922C14.0625 7.32422 14.0625 7.14922 14.0406 6.99609Z" fill="#ED4C5C"/>
<path d="M1.1126 9.01016H13.8876C13.9751 8.68203 14.0188 8.35391 14.0407 8.00391H0.959473C0.981348 8.33203 1.0251 8.68203 1.1126 9.01016Z" fill="white"/>
<path d="M1.44043 10.016H13.5592C13.6904 9.68789 13.7998 9.35977 13.8873 9.00977H1.1123C1.1998 9.35977 1.30918 9.68789 1.44043 10.016Z" fill="#ED4C5C"/>
<path d="M1.96543 11.0219H13.0342C13.2311 10.6937 13.4061 10.3656 13.5592 10.0156H1.44043C1.59355 10.3656 1.76855 10.6937 1.96543 11.0219Z" fill="white"/>
<path d="M2.75332 12.0277H12.2471C12.5314 11.7215 12.8158 11.3715 13.0346 11.0215H1.96582C2.18457 11.3934 2.46895 11.7215 2.75332 12.0277Z" fill="#ED4C5C"/>
<path d="M3.97793 13.0336H11.0217C11.4811 12.7492 11.8748 12.3992 12.2467 12.0273H2.75293C3.1248 12.4211 3.54043 12.7492 3.97793 13.0336Z" fill="white"/>
<path d="M7.4999 14.0633C8.79053 14.0633 9.99365 13.6914 11.0218 13.0352H3.97803C5.00615 13.6914 6.20928 14.0633 7.4999 14.0633Z" fill="#ED4C5C"/>
<path d="M4 1.94375C3.54063 2.22812 3.125 2.57812 2.75313 2.95C2.44688 3.25625 2.18437 3.60625 1.96562 3.95625C1.76875 4.28437 1.57188 4.6125 1.44063 4.9625C1.30938 5.29063 1.2 5.61875 1.1125 5.96875C1.025 6.29688 0.98125 6.625 0.959375 6.975C0.9375 7.15 0.9375 7.325 0.9375 7.5H7.5V0.9375C6.20937 0.9375 5.02812 1.30937 4 1.94375Z" fill="#428BC1"/>
<path d="M5.96865 1.15625L6.07803 1.48438H6.40615L6.14365 1.70312L6.23115 2.03125L5.96865 1.83437L5.70615 2.03125L5.79365 1.70312L5.53115 1.48438H5.85928L5.96865 1.15625ZM6.84365 2.46875L6.95303 2.79688H7.28115L7.01865 3.01562L7.10615 3.34375L6.84365 3.14688L6.58115 3.34375L6.66865 3.01562L6.40615 2.79688H6.73428L6.84365 2.46875ZM5.09365 2.46875L5.20303 2.79688H5.53115L5.26865 3.01562L5.35615 3.34375L5.09365 3.14688L4.83115 3.34375L4.91865 3.01562L4.65615 2.79688H4.98428L5.09365 2.46875ZM5.96865 3.78125L6.07803 4.10938H6.40615L6.14365 4.32812L6.23115 4.65625L5.96865 4.45938L5.70615 4.65625L5.79365 4.32812L5.53115 4.10938H5.85928L5.96865 3.78125ZM4.21865 3.78125L4.32803 4.10938H4.65615L4.39365 4.32812L4.48115 4.65625L4.21865 4.45938L3.95615 4.65625L4.04365 4.32812L3.78115 4.10938H4.10928L4.21865 3.78125ZM2.46865 3.78125L2.57803 4.10938H2.90615L2.64365 4.32812L2.73115 4.65625L2.46865 4.45938L2.20615 4.65625L2.29365 4.32812L2.03115 4.10938H2.35928L2.46865 3.78125ZM6.84365 5.09375L6.95303 5.42188H7.28115L7.01865 5.64062L7.10615 5.96875L6.84365 5.77187L6.58115 5.96875L6.66865 5.64062L6.40615 5.42188H6.73428L6.84365 5.09375ZM5.09365 5.09375L5.20303 5.42188H5.53115L5.26865 5.64062L5.35615 5.96875L5.09365 5.77187L4.83115 5.96875L4.91865 5.64062L4.65615 5.42188H4.98428L5.09365 5.09375ZM3.34365 5.09375L3.45303 5.42188H3.78115L3.51865 5.64062L3.60615 5.96875L3.34365 5.77187L3.08115 5.96875L3.16865 5.64062L2.90615 5.42188H3.23428L3.34365 5.09375ZM5.96865 6.40625L6.07803 6.73438H6.40615L6.14365 6.95312L6.23115 7.28125L5.96865 7.08437L5.70615 7.28125L5.79365 6.95312L5.53115 6.73438H5.85928L5.96865 6.40625ZM4.21865 6.40625L4.32803 6.73438H4.65615L4.39365 6.95312L4.48115 7.28125L4.21865 7.08437L3.95615 7.28125L4.04365 6.95312L3.78115 6.73438H4.10928L4.21865 6.40625ZM2.46865 6.40625L2.57803 6.73438H2.90615L2.64365 6.95312L2.73115 7.28125L2.46865 7.08437L2.20615 7.28125L2.29365 6.95312L2.03115 6.73438H2.35928L2.46865 6.40625ZM3.08115 3.34375L3.34365 3.14688L3.60615 3.34375L3.49678 3.01562L3.75928 2.79688H3.43115L3.34365 2.46875L3.23428 2.79688H2.92803L3.19053 2.99375L3.08115 3.34375ZM1.33115 5.96875L1.59365 5.77187L1.85615 5.96875L1.74678 5.64062L2.00928 5.42188H1.70303L1.59365 5.09375L1.48428 5.42188H1.26553C1.26553 5.44375 1.24365 5.46562 1.24365 5.4875L1.41865 5.61875L1.33115 5.96875Z" fill="white"/>
</g>
<defs>
<clipPath id="clip0_1855_6620">
<rect width="14" height="14" fill="white" transform="translate(0.5 0.5)"/>
</clipPath>
</defs>
</svg>
