<svg width="20" height="24" viewBox="0 0 20 24" fill="none" xmlns="http://www.w3.org/2000/svg">
<path d="M9.99322 24C10.1887 24 10.4942 23.9279 10.8116 23.7708C17.6413 19.9679 20 18.3742 20 14.0397V4.93763C20 3.69421 19.4501 3.29605 18.4362 2.87316C17.0064 2.29369 12.4249 0.663948 11.0081 0.168949C10.6782 0.0726274 10.3482 0 9.99374 0C9.65179 0 9.32183 0.0721123 8.99187 0.168949C7.57506 0.67631 2.99364 2.30605 1.5638 2.87316C0.549937 3.28368 0 3.69421 0 4.93763V14.0403C0 18.3742 2.3702 19.9555 9.18734 23.7703C9.50532 23.9274 9.79775 24 9.99322 24ZM9.99374 13.485C9.35884 13.485 8.99187 13.1105 8.96789 12.4708L8.8089 6.5071C8.7844 5.84264 9.28534 5.37237 9.98175 5.37237C10.6782 5.37237 11.2036 5.855 11.1791 6.51895L10.9956 12.4708C10.9711 13.1229 10.6172 13.485 9.99374 13.485ZM9.99374 17.9276C9.29733 17.9276 8.62542 17.3724 8.62542 16.6239C8.62542 15.875 9.28534 15.3197 9.99374 15.3197C10.7147 15.3197 11.3746 15.8632 11.3746 16.6239C11.3746 17.3842 10.7021 17.9276 9.99374 17.9276Z" fill="#ED1B24"/>
</svg>
