<svg width="13" height="16" viewBox="0 0 13 16" fill="none" xmlns="http://www.w3.org/2000/svg">
<path d="M8.75 4.25H4.25M8.75 7.25H4.25M8.75 10.25H5.75M1.25 1.25H11.75V14.75L10.976 14.087C10.7041 13.854 10.3579 13.7259 9.99988 13.7259C9.64184 13.7259 9.29561 13.854 9.02375 14.087L8.24975 14.75L7.4765 14.087C7.20459 13.8538 6.85821 13.7256 6.5 13.7256C6.14179 13.7256 5.79541 13.8538 5.5235 14.087L4.75025 14.75L3.97625 14.087C3.70439 13.854 3.35816 13.7259 3.00012 13.7259C2.64209 13.7259 2.29586 13.854 2.024 14.087L1.25 14.75V1.25Z" stroke="#1A4393" stroke-width="0.8" stroke-linecap="round" stroke-linejoin="round"/>
</svg>
