<svg width="44" height="44" viewBox="0 0 44 44" fill="none" xmlns="http://www.w3.org/2000/svg">
<g filter="url(#filter0_d_3467_6111)">
<rect x="4" y="3" width="36" height="36" rx="6" fill="#EEEEEE"/>
<path d="M19.2499 11.8335H13.7499C13.5068 11.8335 13.2736 11.9301 13.1017 12.102C12.9298 12.2739 12.8333 12.507 12.8333 12.7502V18.2502C12.8333 18.4933 12.9298 18.7264 13.1017 18.8983C13.2736 19.0703 13.5068 19.1668 13.7499 19.1668H19.2499C19.493 19.1668 19.7262 19.0703 19.8981 18.8983C20.07 18.7264 20.1666 18.4933 20.1666 18.2502V12.7502C20.1666 12.507 20.07 12.2739 19.8981 12.102C19.7262 11.9301 19.493 11.8335 19.2499 11.8335ZM19.2499 22.8335H13.7499C13.5068 22.8335 13.2736 22.9301 13.1017 23.102C12.9298 23.2739 12.8333 23.507 12.8333 23.7502V29.2502C12.8333 29.4933 12.9298 29.7264 13.1017 29.8983C13.2736 30.0702 13.5068 30.1668 13.7499 30.1668H19.2499C19.493 30.1668 19.7262 30.0702 19.8981 29.8983C20.07 29.7264 20.1666 29.4933 20.1666 29.2502V23.7502C20.1666 23.507 20.07 23.2739 19.8981 23.102C19.7262 22.9301 19.493 22.8335 19.2499 22.8335ZM30.2499 11.8335H24.7499C24.5068 11.8335 24.2736 11.9301 24.1017 12.102C23.9298 12.2739 23.8333 12.507 23.8333 12.7502V18.2502C23.8333 18.4933 23.9298 18.7264 24.1017 18.8983C24.2736 19.0703 24.5068 19.1668 24.7499 19.1668H30.2499C30.493 19.1668 30.7262 19.0703 30.8981 18.8983C31.07 18.7264 31.1666 18.4933 31.1666 18.2502V12.7502C31.1666 12.507 31.07 12.2739 30.8981 12.102C30.7262 11.9301 30.493 11.8335 30.2499 11.8335Z" stroke="#2B2B2B" stroke-width="1.6" stroke-linejoin="round"/>
<path d="M23.8333 22.8335H31.1666M27.4999 26.5002H31.1666M23.8333 30.1668H31.1666" stroke="#2B2B2B" stroke-width="1.6" stroke-linecap="round" stroke-linejoin="round"/>
</g>
<defs>
<filter id="filter0_d_3467_6111" x="0" y="0" width="44" height="44" filterUnits="userSpaceOnUse" color-interpolation-filters="sRGB">
<feFlood flood-opacity="0" result="BackgroundImageFix"/>
<feColorMatrix in="SourceAlpha" type="matrix" values="0 0 0 0 0 0 0 0 0 0 0 0 0 0 0 0 0 0 127 0" result="hardAlpha"/>
<feOffset dy="1"/>
<feGaussianBlur stdDeviation="2"/>
<feComposite in2="hardAlpha" operator="out"/>
<feColorMatrix type="matrix" values="0 0 0 0 0 0 0 0 0 0 0 0 0 0 0 0 0 0 0.2 0"/>
<feBlend mode="normal" in2="BackgroundImageFix" result="effect1_dropShadow_3467_6111"/>
<feBlend mode="normal" in="SourceGraphic" in2="effect1_dropShadow_3467_6111" result="shape"/>
</filter>
</defs>
</svg>
