<svg width="28" height="28" viewBox="0 0 28 28" fill="none" xmlns="http://www.w3.org/2000/svg">
<g clip-path="url(#clip0_3467_6084)">
<path d="M16.2983 27.9998C15.7539 27.8766 15.221 27.7248 14.7612 27.39C13.8065 26.6941 13.3 25.7637 13.2747 24.5769C13.2725 24.4684 13.378 24.2695 13.1275 24.2794C12.9407 24.2865 12.6935 24.1764 12.6737 24.5292C12.6622 24.7385 12.5562 24.9352 12.4128 25.0909C12.3002 25.213 12.3282 25.2881 12.4172 25.4081C12.7737 25.8908 12.8248 26.419 12.5562 26.9527C12.2875 27.4864 11.8294 27.7708 11.2317 27.773C8.69154 27.7818 6.15083 27.7944 3.61122 27.7735C1.76158 27.7587 0.131134 26.2103 0.00917947 24.4081C-0.128706 22.3665 1.18532 20.6455 3.11956 20.3529C3.31183 20.3238 3.35248 20.2696 3.33655 20.0833C3.30579 19.726 3.41565 19.3967 3.64308 19.1173C3.72658 19.0154 3.73372 18.9556 3.64857 18.8439C3.27228 18.3485 3.2135 17.8039 3.50025 17.2532C3.78097 16.714 4.24846 16.4521 4.86262 16.4527C5.35813 16.4527 5.35813 16.4488 5.35813 15.9409C5.35813 11.5476 5.36197 7.15477 5.35538 2.76143C5.35373 1.73296 5.73278 0.920919 6.61777 0.368053C6.99792 0.131893 7.41762 0.00532006 7.86368 0.00477212C11.0982 0.000388649 14.3333 -0.00399483 17.5678 0.00641593C18.2968 0.00860766 18.9077 0.323122 19.4076 0.851331C20.2041 1.69296 21.0007 2.53459 21.7989 3.37457C22.301 3.90278 22.5443 4.53126 22.5443 5.25618C22.5443 6.46821 22.5493 7.68079 22.5399 8.89282C22.5383 9.0961 22.5916 9.15254 22.7976 9.15308C23.5189 9.15473 24.2412 9.10925 24.9614 9.18103C26.5573 9.34103 27.879 10.7043 27.9834 12.2955C27.9921 12.4319 27.9982 12.5684 27.9982 12.7053C27.9987 16.6247 28.0015 20.5435 27.9976 24.4629C27.996 26.104 27.0187 27.4338 25.5113 27.8683C25.3471 27.9155 25.1812 27.9571 25.0158 28.0015H16.2983V27.9998ZM6.24422 9.33335C6.24422 11.6111 6.24697 13.8894 6.23982 16.1672C6.23927 16.3897 6.29256 16.4609 6.52658 16.4592C8.07957 16.4488 9.63257 16.4565 11.1856 16.4527C11.8019 16.451 12.2645 16.7113 12.5435 17.2543C12.827 17.8055 12.7792 18.3458 12.4013 18.8449C12.3342 18.9337 12.3057 18.9852 12.3853 19.097C12.8413 19.7337 12.8352 20.2942 12.3798 20.9594C12.3276 21.0356 12.3095 21.0761 12.3705 21.1665C12.8402 21.8646 12.8424 22.3682 12.3765 23.0498C12.3084 23.1495 12.3315 23.195 12.3897 23.2783C12.5413 23.4953 12.7594 23.3621 12.9435 23.3988C13.2236 23.4547 13.2857 23.3336 13.2851 23.0613C13.2753 19.5989 13.2808 16.1365 13.2769 12.6741C13.2764 12.1558 13.3483 11.6539 13.5763 11.1881C14.2317 9.84841 15.3172 9.16404 16.8081 9.15035C18.3243 9.1361 19.841 9.14048 21.3572 9.15308C21.6159 9.15528 21.672 9.07583 21.6692 8.832C21.6571 7.72955 21.6654 6.62711 21.6648 5.52466C21.6648 5.36083 21.6593 5.197 21.6549 5.03262C21.6494 4.84358 21.5868 4.75208 21.3616 4.75591C20.4299 4.77125 19.4982 4.76303 18.5665 4.76194C18.1155 4.76194 17.9831 4.62934 17.982 4.17346C17.9804 3.18005 17.9705 2.18665 17.9886 1.19434C17.9936 0.919823 17.9068 0.870509 17.6513 0.871604C14.4816 0.880371 11.3114 0.896261 8.14165 0.866673C7.0946 0.85681 6.21346 1.56912 6.23378 2.77348C6.27004 4.95974 6.24422 7.1471 6.24422 9.3339V9.33335ZM27.1703 18.5956C27.1703 16.6549 27.1703 14.7146 27.1703 12.7738C27.1703 12.5464 27.1731 12.318 27.1269 12.0933C26.8643 10.8084 25.8217 9.98047 24.4461 9.97827C21.9159 9.97444 19.3856 9.97499 16.8553 9.97827C15.2106 9.98047 14.1053 11.084 14.1042 12.7218C14.1026 16.6302 14.1037 20.5392 14.1048 24.4476C14.1048 24.6109 14.1059 24.7769 14.1328 24.9374C14.3575 26.2854 15.4056 27.1736 16.7894 27.1763C19.3197 27.1812 21.8499 27.1527 24.3797 27.1873C25.9755 27.2092 27.2154 26.0021 27.1802 24.3906C27.1379 22.4602 27.1703 20.5277 27.1703 18.5962V18.5956ZM5.23782 26.9566C6.87102 26.9593 8.17186 25.6618 8.17791 24.0235C8.1834 22.4443 6.85344 21.1139 5.26749 21.1129C3.65462 21.1118 2.32521 22.4257 2.32411 24.0224C2.32301 25.6366 3.631 26.9538 5.23837 26.9566H5.23782ZM8.0175 17.3316C6.98583 17.3316 5.95472 17.3305 4.92305 17.3321C4.48907 17.3327 4.22319 17.5568 4.21605 17.9195C4.20836 18.2943 4.48248 18.5381 4.9225 18.5381C6.98528 18.5392 9.04807 18.5392 11.1108 18.5381C11.5553 18.5381 11.8365 18.3008 11.8365 17.9337C11.8365 17.565 11.5597 17.3327 11.1114 17.3316C10.0797 17.3299 9.04861 17.3316 8.01695 17.3316H8.0175ZM8.03618 19.4159C6.98583 19.4159 5.93549 19.4132 4.88515 19.417C4.48413 19.4186 4.21824 19.6652 4.21495 20.0197C4.2133 20.1973 4.2545 20.3074 4.47753 20.2997C5.25485 20.2734 6.03217 20.2718 6.7617 20.6093C6.79301 20.6235 6.83366 20.6224 6.86937 20.6224C8.33062 20.6224 9.79188 20.6257 11.2531 20.6181C11.5728 20.6164 11.8047 20.3786 11.8332 20.0707C11.8667 19.7036 11.5811 19.4186 11.1597 19.417C10.1187 19.4132 9.07718 19.4159 8.03618 19.4159ZM7.68405 26.8941C8.92996 26.8941 10.1039 26.904 11.2773 26.8881C11.6135 26.8837 11.853 26.5785 11.8354 26.2623C11.8173 25.9374 11.5739 25.698 11.2196 25.6941C10.4082 25.6854 9.59631 25.6903 8.78493 25.6892C8.69044 25.6892 8.61189 25.6969 8.55915 25.7988C8.3526 26.1977 8.06584 26.5374 7.6846 26.8941H7.68405ZM8.08946 21.5024C8.08946 21.5375 8.07847 21.5715 8.09111 21.5857C8.3504 21.8942 8.56519 22.2301 8.71681 22.6032C8.7635 22.7183 8.84701 22.7123 8.93765 22.7123C9.68475 22.7123 10.4319 22.7167 11.179 22.7101C11.569 22.7068 11.8266 22.4684 11.8365 22.1271C11.847 21.7813 11.5756 21.5079 11.1828 21.5046C10.1539 21.4964 9.12442 21.5019 8.08946 21.5019V21.5024ZM10.1852 24.8098V24.8087C10.5225 24.8087 10.8609 24.818 11.1976 24.8065C11.5789 24.7933 11.8376 24.5363 11.836 24.1972C11.8338 23.869 11.586 23.6103 11.2152 23.6021C10.5313 23.5868 9.84681 23.5972 9.16288 23.5939C9.03598 23.5933 8.9816 23.6355 8.99313 23.7698C9.01785 24.052 9.00741 24.3342 8.95303 24.6125C8.92062 24.7796 8.99533 24.8152 9.14475 24.812C9.49138 24.8048 9.83802 24.8098 10.1847 24.8098H10.1852ZM21.0688 3.88415C20.3151 3.09019 19.6163 2.35432 18.8654 1.56365C18.8654 2.34829 18.8659 3.05458 18.8643 3.76086C18.8643 3.85785 18.9104 3.88524 18.9994 3.88524C19.6625 3.8836 20.3261 3.88415 21.0688 3.88415ZM1.38583 25.2125C1.60612 25.2629 1.72148 25.1889 1.60612 24.9084C1.5792 24.8426 1.56492 24.7676 1.56162 24.6963C1.55558 24.5561 1.48581 24.5079 1.35177 24.5166C1.243 24.5243 1.13368 24.5166 1.02491 24.5194C0.962838 24.521 0.901312 24.5161 0.882085 24.6054C0.823855 24.8711 1.0793 25.2125 1.38583 25.213V25.2125ZM1.1639 23.6892C1.51548 23.6892 1.6259 23.5588 1.60008 23.1523C1.58524 22.9188 1.38858 23.0465 1.28256 23.0399C0.977671 23.0208 0.855717 23.1654 0.857365 23.5616C0.859013 23.8191 1.08314 23.6229 1.16335 23.6892H1.1639ZM2.61142 21.3474C2.13404 21.5638 1.7885 21.818 1.50064 22.1764C1.82036 22.2635 2.03076 22.201 2.17579 21.9101C2.26698 21.7271 2.42848 21.5786 2.61197 21.3474H2.61142ZM2.58779 26.6947C2.44551 26.5204 2.30928 26.3933 2.22303 26.2382C2.08734 25.9944 1.90112 26.0114 1.67204 26.0645C1.90386 26.3462 2.20216 26.5549 2.58834 26.6947H2.58779Z" fill="#2952A1"/>
<path d="M11.2738 13.6022C11.2859 13.2691 11.0744 13.0154 10.7305 12.8603C10.4234 12.7217 10.1015 12.6143 9.79989 12.4658C9.13134 12.1371 8.87315 11.5513 9.05498 10.8313C9.16155 10.4089 9.42633 10.119 9.82955 9.97929C10.0246 9.91189 10.0932 9.81655 10.0652 9.62751C10.0614 9.60066 10.0647 9.57272 10.0674 9.54587C10.0905 9.31628 10.2124 9.17273 10.4465 9.15136C10.6574 9.13218 10.8585 9.30478 10.8453 9.54477C10.8299 9.81819 10.9568 9.87956 11.1853 9.90312C11.376 9.92285 11.5578 9.99189 11.7193 10.1015C11.9149 10.2341 11.9736 10.4083 11.8539 10.6198C11.7385 10.8231 11.5666 10.8593 11.365 10.7519C11.0128 10.565 10.6442 10.5037 10.2531 10.5968C9.99985 10.6571 9.82186 10.7935 9.77901 11.062C9.73287 11.3502 9.82076 11.5847 10.0817 11.7365C10.3514 11.8938 10.6525 11.9765 10.9387 12.0938C11.4616 12.3075 11.883 12.6231 11.994 13.2159C12.1621 14.1167 11.8434 14.9091 10.9914 15.1337C10.8942 15.1595 10.8502 15.2016 10.8574 15.3003C10.8607 15.3458 10.8596 15.3918 10.8557 15.4367C10.8337 15.7068 10.681 15.8663 10.4509 15.8603C10.2322 15.8548 10.0663 15.7003 10.074 15.4444C10.0806 15.2247 9.99435 15.1485 9.79659 15.1036C9.51697 15.04 9.26977 14.8997 9.06981 14.6893C8.97477 14.5891 8.89347 14.4789 8.89072 14.3315C8.88743 14.1496 8.96653 14.0165 9.13024 13.9365C9.28405 13.8619 9.39832 13.9403 9.49061 14.0482C9.78286 14.3896 10.1504 14.5189 10.5915 14.4581C11.0694 14.3918 11.2776 14.1518 11.2743 13.6033L11.2738 13.6022Z" fill="#2952A1"/>
<path d="M15.4493 7.68004C16.5452 7.68004 17.6412 7.68004 18.7371 7.68059C18.8371 7.68059 18.9393 7.6795 19.0371 7.69867C19.2546 7.74196 19.3705 7.88552 19.3661 8.10469C19.3623 8.31072 19.2469 8.44551 19.0426 8.48825C18.9541 8.50633 18.8613 8.50633 18.7701 8.50633C16.5419 8.50743 14.3133 8.50688 12.0851 8.50688C12.0577 8.50688 12.0302 8.50688 12.0027 8.50688C11.6836 8.49811 11.4929 8.34524 11.4907 8.09702C11.4885 7.84881 11.6797 7.68333 11.9972 7.68169C13.0564 7.67731 14.1161 7.68004 15.1752 7.68004C15.2664 7.68004 15.3576 7.68004 15.4493 7.68004Z" fill="#2952A1"/>
<path d="M12.5977 5.63474C13.7656 5.63474 14.9335 5.63474 16.1014 5.63474C16.1833 5.63474 16.2684 5.62652 16.3464 5.6457C16.5563 5.69776 16.6821 5.83748 16.676 6.05556C16.67 6.27254 16.5431 6.40952 16.3277 6.44843C16.2393 6.46432 16.1459 6.45664 16.0547 6.45664C13.7557 6.45664 11.4562 6.45664 9.15717 6.45664C9.07532 6.45664 8.99237 6.46103 8.91106 6.45281C8.67704 6.4298 8.5485 6.28952 8.52597 6.06378C8.50455 5.85337 8.67649 5.66597 8.90337 5.63803C8.97534 5.62926 9.04895 5.63419 9.12201 5.63419C10.2806 5.63419 11.4397 5.63419 12.5983 5.63419L12.5977 5.63474Z" fill="#2952A1"/>
<path d="M9.60273 8.50648C9.39288 8.50648 9.18249 8.51305 8.97319 8.50429C8.70071 8.49278 8.52053 8.32128 8.52272 8.0906C8.52492 7.86923 8.69522 7.6928 8.95286 7.68622C9.38135 7.67471 9.81093 7.67362 10.2394 7.68677C10.5059 7.69499 10.658 7.86211 10.6564 8.09772C10.6547 8.33223 10.4998 8.48127 10.2328 8.50538C10.2147 8.50703 10.1966 8.50703 10.1779 8.50703C9.98617 8.50703 9.79445 8.50703 9.60273 8.50703V8.50648Z" fill="#2952A1"/>
<path d="M18.4262 6.45515C18.2526 6.45515 18.0785 6.46392 17.906 6.45296C17.6719 6.43816 17.5082 6.26282 17.5088 6.04694C17.5088 5.8305 17.6714 5.64804 17.906 5.63982C18.2614 5.62722 18.6185 5.62722 18.9739 5.63982C19.209 5.64804 19.3689 5.82886 19.3694 6.04694C19.3694 6.26502 19.209 6.43871 18.9739 6.45296C18.7921 6.46392 18.6086 6.45515 18.4262 6.45515Z" fill="#2952A1"/>
<path d="M20.651 10.9135C21.8937 10.9135 23.1363 10.9119 24.3789 10.9135C25.3699 10.9151 25.9225 11.4669 25.9264 12.4543C25.928 12.8735 25.9313 13.2926 25.9253 13.7118C25.9126 14.6236 25.3375 15.1907 24.4234 15.1918C23.0072 15.194 21.591 15.1923 20.1748 15.1918C20.0748 15.1918 19.9742 15.1983 19.8781 15.1567C19.6864 15.0734 19.5952 14.9277 19.621 14.7233C19.6452 14.5315 19.7595 14.4077 19.9556 14.3792C20.0545 14.3649 20.1561 14.3682 20.2566 14.3682C21.6272 14.3677 22.9978 14.3682 24.3684 14.3677C24.903 14.3677 25.0936 14.177 25.0969 13.6433C25.0991 13.2335 25.1007 12.8231 25.0963 12.4132C25.0908 11.9398 24.8997 11.7409 24.4327 11.7403C21.9019 11.7376 19.3705 11.7376 16.8397 11.7403C16.3826 11.7403 16.1876 11.9409 16.1843 12.3902C16.1816 12.8274 16.1816 13.2652 16.1843 13.7025C16.1871 14.1617 16.3909 14.3638 16.8589 14.3677C17.2885 14.3715 17.7181 14.366 18.1471 14.3699C18.4663 14.3726 18.6547 14.5293 18.6531 14.7797C18.6514 15.0323 18.4625 15.1896 18.1438 15.1918C17.678 15.1951 17.2116 15.2011 16.7458 15.1907C15.9487 15.1731 15.3713 14.5907 15.3598 13.7967C15.3526 13.3228 15.3559 12.8488 15.3587 12.3748C15.3642 11.4877 15.9201 10.9223 16.8139 10.9157C18.0933 10.9069 19.3722 10.9135 20.6516 10.9135H20.651Z" fill="#2952A1"/>
<path d="M25.9654 22.8955C25.9654 23.5876 25.9692 24.2802 25.9643 24.9722C25.9588 25.7623 25.4721 26.2385 24.6744 26.2418C24.4459 26.2429 24.2174 26.2489 23.9894 26.2396C23.3313 26.2116 22.8314 25.7157 22.8275 25.0604C22.8187 23.6029 22.8204 22.1454 22.8275 20.6879C22.8303 20.1137 23.2247 19.6775 23.7927 19.6139C24.1833 19.5701 24.5783 19.5739 24.9689 19.6101C25.5611 19.6644 25.9522 20.0868 25.9615 20.6813C25.9731 21.4188 25.9643 22.1569 25.9643 22.895H25.9654V22.8955ZM25.1375 22.8879C25.1375 22.187 25.1326 21.4868 25.1403 20.786C25.143 20.5285 25.0337 20.42 24.7799 20.4271C24.5157 20.4348 24.2509 20.4315 23.9861 20.4282C23.7603 20.4254 23.6488 20.5279 23.6493 20.7569C23.6504 22.1673 23.6477 23.5777 23.6515 24.9881C23.6521 25.2851 23.7883 25.41 24.0949 25.4182C24.2772 25.4231 24.4596 25.4204 24.642 25.4188C25.0221 25.4155 25.1353 25.3064 25.137 24.9349C25.1392 24.2528 25.1375 23.57 25.1375 22.8879Z" fill="#2952A1"/>
<path d="M19.0717 21.1741C19.0717 20.9281 19.0596 20.6815 19.0739 20.436C19.1002 19.9752 19.4062 19.6377 19.8671 19.6125C20.3769 19.5845 20.8905 19.5845 21.4003 19.6147C21.8903 19.6432 22.1985 19.99 22.2106 20.481C22.2222 20.9456 22.2232 21.4108 22.2106 21.8755C22.1969 22.3631 21.8453 22.7204 21.3575 22.7357C20.8735 22.7516 20.3884 22.7527 19.905 22.7346C19.4392 22.7171 19.1046 22.3774 19.075 21.9127C19.0596 21.6678 19.0722 21.4207 19.0717 21.1747V21.1741ZM21.3882 21.1889C21.3882 21.0064 21.3817 20.824 21.3904 20.6421C21.397 20.4958 21.3553 20.4234 21.1932 20.4273C20.8279 20.4349 20.4621 20.4327 20.0967 20.4284C19.966 20.4267 19.8929 20.4563 19.8957 20.6081C19.9028 20.9818 19.9017 21.3555 19.8957 21.7292C19.8935 21.8722 19.9512 21.9231 20.0907 21.9176C20.2824 21.91 20.4741 21.916 20.6664 21.916C21.1476 21.916 21.3881 21.6736 21.3877 21.1889H21.3882Z" fill="#2952A1"/>
<path d="M22.2133 24.6632C22.2133 24.8993 22.221 25.1361 22.2116 25.3722C22.1918 25.8703 21.8375 26.2275 21.3387 26.2396C20.874 26.2511 20.4087 26.25 19.9439 26.2396C19.4501 26.2286 19.0941 25.8928 19.0749 25.4029C19.0562 24.9218 19.0551 24.4385 19.0738 23.9574C19.093 23.4523 19.4182 23.1284 19.9264 23.1087C20.3993 23.0901 20.8745 23.0901 21.3481 23.1087C21.8721 23.129 22.2006 23.4835 22.2133 24.0079C22.2182 24.2259 22.2144 24.444 22.2138 24.6626L22.2133 24.6632ZM21.386 24.6402C21.3656 24.4484 21.4892 24.1487 21.3442 23.9947C21.1854 23.8265 20.8773 23.9432 20.6356 23.9388C20.4015 23.9344 20.101 23.8353 19.9494 23.9843C19.7973 24.1339 19.8978 24.4347 19.9022 24.6676C19.9066 24.9087 19.7879 25.215 19.9599 25.3744C20.1164 25.5191 20.4142 25.4117 20.6498 25.4144C21.386 25.4221 21.386 25.4193 21.3865 24.6407L21.386 24.6402Z" fill="#2952A1"/>
<path d="M18.4943 21.1696C18.4943 21.397 18.4981 21.6244 18.4937 21.8518C18.4838 22.3526 18.1421 22.7186 17.6422 22.735C17.1687 22.7509 16.6941 22.7493 16.2205 22.7356C15.7168 22.7214 15.3691 22.363 15.3608 21.8627C15.3537 21.3992 15.3537 20.9351 15.3608 20.4715C15.3685 19.9893 15.6827 19.6359 16.1689 19.6096C16.6688 19.5828 17.172 19.5828 17.6719 19.6085C18.1702 19.6337 18.4849 19.9921 18.4943 20.488C18.4987 20.7154 18.4948 20.9428 18.4948 21.1701L18.4943 21.1696ZM17.6692 21.2211C17.6692 20.9965 17.6609 20.8145 17.6719 20.6337C17.6807 20.4819 17.6302 20.4233 17.473 20.4266C17.1088 20.4348 16.7446 20.4348 16.3804 20.4266C16.2227 20.4228 16.1777 20.483 16.181 20.6337C16.1898 20.9877 16.1903 21.3422 16.181 21.6962C16.1766 21.8573 16.2216 21.9296 16.3941 21.9181C16.5754 21.906 16.7584 21.9225 16.9402 21.9137C17.1742 21.9027 17.4752 22.0162 17.6236 21.8622C17.7702 21.7099 17.6477 21.4118 17.6692 21.2211Z" fill="#2952A1"/>
<path d="M18.4937 24.6803C18.4937 24.9077 18.4981 25.1351 18.4931 25.3625C18.4827 25.8496 18.1448 26.22 17.662 26.2375C17.1703 26.2556 16.677 26.2556 16.1853 26.2375C15.7129 26.22 15.3696 25.8573 15.3608 25.3871C15.352 24.9143 15.3509 24.4414 15.3608 23.9685C15.3701 23.4831 15.6865 23.1379 16.1754 23.1148C16.6753 23.0913 17.1785 23.0913 17.6784 23.1148C18.1641 23.1379 18.4794 23.488 18.4931 23.9707C18.4997 24.2069 18.4942 24.4436 18.4948 24.6797L18.4937 24.6803ZM16.8654 25.4156C17.6795 25.4162 17.6828 25.4162 17.6708 24.6474C17.6669 24.4222 17.7658 24.1296 17.6263 23.9888C17.4741 23.8348 17.1763 23.9384 16.9429 23.9389C16.7001 23.9389 16.3858 23.8304 16.2326 23.9872C16.0793 24.1433 16.1886 24.4556 16.1864 24.6989C16.1842 24.9252 16.0903 25.2145 16.2238 25.3614C16.3743 25.5268 16.6732 25.3915 16.8654 25.4162V25.4156Z" fill="#2952A1"/>
<path d="M20.6373 19.0452C20.3906 19.0452 20.1434 19.0551 19.8973 19.043C19.4501 19.0211 19.1046 18.7143 19.0832 18.2743C19.0579 17.7472 19.0579 17.2173 19.0832 16.6902C19.1046 16.2579 19.4633 15.9324 19.9006 15.9204C20.3933 15.9067 20.8878 15.9056 21.3805 15.9204C21.8348 15.9346 22.1902 16.2875 22.2078 16.7472C22.226 17.2294 22.2243 17.7132 22.2089 18.1959C22.193 18.6902 21.848 19.0222 21.3492 19.0441C21.1119 19.0545 20.874 19.0458 20.6367 19.0458C20.6367 19.0458 20.6367 19.0452 20.6367 19.0447L20.6373 19.0452ZM20.6598 16.7406V16.7384C20.4686 16.7384 20.2769 16.7445 20.0863 16.7362C19.9429 16.7302 19.894 16.7899 19.8962 16.9275C19.9011 17.2995 19.9006 17.6721 19.8962 18.0442C19.8951 18.1663 19.9302 18.2266 20.0659 18.225C20.4483 18.2195 20.8306 18.2184 21.213 18.225C21.3679 18.2277 21.3926 18.1499 21.3899 18.0217C21.3844 17.7587 21.3882 17.4951 21.3882 17.2316C21.3882 16.9013 21.2272 16.7373 20.9053 16.7395C20.8235 16.7395 20.7416 16.7395 20.6598 16.7395V16.7406Z" fill="#2952A1"/>
<path d="M25.963 17.4732C25.963 17.7192 25.9713 17.9658 25.9608 18.2113C25.941 18.6803 25.6125 19.0261 25.1478 19.0414C24.6457 19.0578 24.1425 19.0584 23.6404 19.0414C23.1844 19.0261 22.8389 18.6661 22.8279 18.2063C22.8164 17.7236 22.8153 17.2403 22.8279 16.7576C22.8406 16.2913 23.2037 15.9319 23.6728 15.9198C24.1568 15.9072 24.6413 15.9067 25.1253 15.9198C25.5961 15.9324 25.941 16.2875 25.9608 16.7625C25.9707 16.9992 25.9625 17.2365 25.9625 17.4732H25.963ZM25.1368 17.5296C25.1368 17.2913 25.1324 17.1006 25.1385 16.9099C25.1428 16.7806 25.0912 16.7346 24.9621 16.7362C24.5886 16.7417 24.215 16.7423 23.8415 16.7362C23.703 16.734 23.6409 16.7779 23.647 16.9225C23.6552 17.1132 23.6437 17.3044 23.6525 17.4946C23.6629 17.7275 23.5487 18.0283 23.7014 18.1757C23.8524 18.322 24.1529 18.2233 24.387 18.22C24.6287 18.2162 24.9379 18.3296 25.0945 18.1674C25.2379 18.019 25.1187 17.7165 25.1368 17.5296Z" fill="#2952A1"/>
<path d="M18.4938 17.4968C18.4938 17.7335 18.4999 17.9708 18.4922 18.2075C18.4768 18.6689 18.1412 19.025 17.6792 19.0409C17.1771 19.0579 16.6739 19.0579 16.1718 19.0409C15.7076 19.025 15.3708 18.6732 15.3609 18.2091C15.351 17.7264 15.351 17.2431 15.3609 16.7599C15.3708 16.293 15.7279 15.9314 16.1976 15.9193C16.6816 15.9067 17.1666 15.9062 17.65 15.9193C18.1313 15.9325 18.4806 16.3007 18.4922 16.7856C18.4977 17.0223 18.4933 17.2596 18.4927 17.4963L18.4938 17.4968ZM16.1838 17.4409C16.1838 17.6766 16.1877 17.8678 16.1822 18.0585C16.1795 18.1697 16.2119 18.2261 16.3349 18.225C16.7271 18.2207 17.1194 18.2212 17.5111 18.225C17.627 18.2261 17.6737 18.1828 17.6704 18.0645C17.6643 17.8645 17.6759 17.6639 17.6671 17.4645C17.6566 17.2316 17.7709 16.9297 17.616 16.784C17.4638 16.641 17.1639 16.7423 16.9293 16.7412C16.6942 16.7401 16.3915 16.641 16.241 16.7801C16.0745 16.9346 16.2119 17.2448 16.1833 17.4409H16.1838Z" fill="#2952A1"/>
<path d="M5.25462 26.2409C5.07938 26.2239 4.91513 26.1548 4.87612 25.9795C4.83712 25.8053 4.72945 25.7538 4.59101 25.6962C4.42017 25.625 4.27459 25.5127 4.18505 25.345C4.07024 25.1302 4.10704 24.9324 4.29602 24.7845C4.4751 24.6436 4.65474 24.682 4.80745 24.8431C4.92611 24.9686 5.06619 25.0464 5.24198 25.0371C5.37328 25.0299 5.50622 25.0036 5.54248 24.8513C5.57763 24.7023 5.56665 24.5488 5.41503 24.4667C5.25572 24.3806 5.08542 24.3132 4.91622 24.2464C4.51356 24.0875 4.22625 23.8305 4.19714 23.3735C4.16912 22.9379 4.32184 22.5861 4.7311 22.3818C4.80965 22.3429 4.83108 22.2919 4.84096 22.2136C4.86843 21.9944 5.00412 21.8651 5.21781 21.8459C5.43371 21.8267 5.59631 21.9374 5.6485 22.1473C5.67926 22.2716 5.74573 22.2985 5.84901 22.3275C5.9435 22.3538 6.03798 22.3998 6.11764 22.4574C6.30167 22.5911 6.37308 22.7708 6.25607 22.9812C6.14291 23.1845 5.96437 23.2519 5.74463 23.1593C5.58258 23.0908 5.42107 23.036 5.24198 23.0601C5.1486 23.0727 5.05521 23.0897 5.02829 23.1976C4.99863 23.3171 5.07334 23.3916 5.16618 23.4371C5.31285 23.5094 5.46612 23.5686 5.61828 23.6311C6.04732 23.8064 6.33792 24.0963 6.37363 24.5779C6.41099 25.0792 6.2698 25.5001 5.77924 25.7318C5.68915 25.7746 5.67432 25.8376 5.65344 25.9198C5.60235 26.1198 5.45623 26.2162 5.25517 26.2403L5.25462 26.2409Z" fill="#2952A1"/>
</g>
<defs>
<clipPath id="clip0_3467_6084">
<rect width="28" height="28" fill="white"/>
</clipPath>
</defs>
</svg>
