<svg width="20" height="21" viewBox="0 0 20 21" fill="none" xmlns="http://www.w3.org/2000/svg">
<path d="M11.5781 12.5703C11.7656 12.7422 12.0078 12.8438 12.2734 12.8438C12.8438 12.8438 13.3047 12.3828 13.3047 11.8125C13.3047 11.4531 13.1172 11.1328 12.8438 10.9531L12.8516 10.9375C12.5859 10.7656 12.3125 10.6094 12.0234 10.4688C13.1953 9.48438 13.9375 8.01562 13.9375 6.36719C13.9375 3.40625 11.5391 1.00781 8.57812 1.00781C5.625 1.01562 3.22656 3.41406 3.22656 6.36719C3.22656 8.01562 3.96875 9.53906 5.13281 10.5234C2.71875 11.7188 1.00781 13.9062 0.78125 16.9844C0.78125 16.9688 0.78125 16.9609 0.78125 16.9609C0.78125 16.9688 0.78125 16.9766 0.78125 16.9922V17C0.796875 17.5469 1.25 17.9609 1.8125 17.9609C2.375 17.9609 2.82812 17.5547 2.84375 17C3.14844 13.9141 5.60156 11.7891 8.57812 11.7891C9.67969 11.7891 10.6953 12.0703 11.5703 12.6016L11.5781 12.5703ZM8.58594 9.67188C6.76562 9.67188 5.28906 8.19531 5.28906 6.375C5.28906 4.55469 6.76562 3.07812 8.58594 3.07812C10.4062 3.07812 11.8828 4.55469 11.8828 6.375C11.8828 8.19531 10.4062 9.67188 8.58594 9.67188Z" fill="#2B2B2B"/>
<path d="M19.1093 10.8047C19.1405 10.875 19.1718 10.9609 19.1874 11.0547C19.203 11.1484 19.2187 11.25 19.2187 11.3516C19.2187 11.4531 19.203 11.5625 19.1562 11.6641C19.1171 11.7734 19.0468 11.8672 18.9608 11.9609C18.8671 12.0547 18.7812 12.1406 18.703 12.2109C18.6249 12.2812 18.5624 12.3437 18.5077 12.4062C18.4452 12.4687 18.3827 12.5234 18.328 12.5781L16.0858 10.3281C16.1796 10.2422 16.2968 10.1328 16.4296 10.0156C16.5624 9.89063 16.6718 9.79688 16.7577 9.71875C16.8671 9.63281 16.9843 9.57031 17.1093 9.53125C17.2265 9.49219 17.3437 9.47656 17.4608 9.48438C17.578 9.48438 17.6874 9.50781 17.7968 9.53906C17.9062 9.57031 17.9999 9.60937 18.078 9.64844C18.2499 9.73437 18.4296 9.89063 18.6327 10.1094C18.8358 10.3359 18.9999 10.5625 19.1093 10.8047ZM9.75772 16.6563C9.8046 16.6094 9.92178 16.4922 10.0937 16.3125C10.2655 16.1328 10.4921 15.9062 10.7577 15.6484L15.1874 11.2187L17.4374 13.4766L14.8593 16.0625L13.8983 17.0313C13.578 17.3438 13.289 17.625 13.0312 17.8906C12.7733 18.1484 12.5624 18.3672 12.3905 18.5312C12.2187 18.7031 12.1249 18.7969 12.0937 18.8203C12.0155 18.8906 11.9218 18.9688 11.8202 19.0469C11.7187 19.125 11.6093 19.1953 11.4999 19.2422C11.3905 19.2969 11.2265 19.3672 11.0077 19.4453C10.789 19.5234 10.5624 19.6016 10.328 19.6797C10.0937 19.7578 9.8671 19.8203 9.65616 19.875C9.44522 19.9297 9.28897 19.9687 9.1796 19.9844C8.96085 20.0078 8.82022 19.9766 8.74991 19.8906C8.6796 19.8047 8.65616 19.6562 8.68741 19.4453C8.70303 19.3359 8.7421 19.1719 8.8046 18.9609C8.8671 18.75 8.9296 18.5312 8.99991 18.3047C9.07022 18.0781 9.13272 17.8672 9.19522 17.6719C9.25772 17.4766 9.31241 17.3516 9.35147 17.2734C9.39835 17.1641 9.45303 17.0547 9.51553 16.9688C9.56241 16.875 9.64835 16.7734 9.75772 16.6563Z" fill="#2B2B2B"/>
</svg>
