<svg width="44" height="44" viewBox="0 0 44 44" fill="none" xmlns="http://www.w3.org/2000/svg">
<g clip-path="url(#clip0_11319_12012)">
<path d="M20.2634 -0.0172682C20.3408 -0.0178748 20.4182 -0.0184815 20.4979 -0.0191066C23.7535 -0.0388395 23.7535 -0.0388395 25.1797 0.258C25.2664 0.275988 25.3532 0.293976 25.4426 0.312509C28.9032 1.05184 32.0567 2.48513 34.8047 4.72675C34.8524 4.76569 34.9002 4.80463 34.9495 4.84475C36.068 5.76378 37.0962 6.76083 37.9843 7.90644C38.0509 7.98875 38.1175 8.07106 38.1861 8.15586C40.8668 11.5248 42.6197 15.9333 42.6424 20.2636C42.643 20.341 42.6436 20.4184 42.6443 20.4981C42.6639 23.7429 42.6639 23.7429 42.3672 25.1799C42.3501 25.2644 42.333 25.3488 42.3154 25.4359C41.4367 29.6611 41.4367 29.6611 40.4765 30.4221C40.3755 30.4345 40.2745 30.4469 40.1704 30.4597C39.8735 30.475 39.8735 30.475 39.7461 30.6638C39.666 31.0142 39.7781 31.1771 39.9609 31.4855C39.991 31.5323 40.0212 31.579 40.0522 31.6272C40.1582 31.8506 40.1858 32.069 40.2187 32.3127C40.2901 32.31 40.2901 32.31 40.3629 32.3072C42.4249 32.2394 42.4249 32.2394 43.2668 33.0257C43.8249 33.6465 44.0259 34.2926 44.0249 35.1143C44.0258 35.223 44.0258 35.223 44.0267 35.3339C44.0283 35.5725 44.0287 35.811 44.0288 36.0496C44.0294 36.2164 44.03 36.3831 44.0306 36.5499C44.0316 36.8992 44.0319 37.2486 44.0318 37.5979C44.0318 38.0439 44.0341 38.4898 44.0371 38.9357C44.039 39.2802 44.0394 39.6246 44.0393 39.9691C44.0395 40.1334 44.0402 40.2977 44.0416 40.462C44.0494 41.5196 44.0511 42.4488 43.287 43.267C42.5578 43.9226 41.8337 44.0259 40.8814 44.0252C40.7753 44.0257 40.6692 44.0263 40.5599 44.0269C40.2697 44.0283 39.9796 44.0288 39.6894 44.0289C39.5078 44.0291 39.3263 44.0294 39.1447 44.0299C38.5102 44.0315 37.8758 44.0322 37.2413 44.032C36.6515 44.0319 36.0616 44.0337 35.4717 44.0365C34.964 44.0387 34.4563 44.0396 33.9486 44.0395C33.646 44.0395 33.3433 44.04 33.0406 44.0418C32.7027 44.0438 32.3648 44.043 32.0269 44.0419C31.9276 44.0429 31.8283 44.0439 31.726 44.0449C30.8376 44.038 30.1246 43.7577 29.4765 43.1408C29.0255 42.5685 28.8549 41.9852 28.8213 41.2609C28.8179 41.2018 28.8146 41.1426 28.8112 41.0817C28.8032 40.9374 28.796 40.793 28.789 40.6486C28.5303 40.709 28.5303 40.709 28.2734 40.8205C28.2371 40.9934 28.2012 41.1665 28.1696 41.3403C28.1015 41.508 28.1015 41.508 27.9507 41.6101C27.4813 41.8013 27.0153 41.9536 26.5224 42.072C26.4488 42.09 26.3752 42.108 26.2994 42.1266C25.0144 42.432 23.6918 42.6357 22.3699 42.6426C22.2924 42.6432 22.2149 42.6439 22.135 42.6445C18.8757 42.6642 18.8757 42.6642 17.4453 42.3674C17.3172 42.3411 17.3172 42.3411 17.1865 42.3143C13.4629 41.5268 10.0743 39.9098 7.21872 37.383C7.14394 37.3177 7.06916 37.2525 6.99212 37.1853C6.13243 36.4255 5.34837 35.6222 4.64059 34.7189C4.57368 34.6363 4.50677 34.5537 4.43783 34.4685C1.75158 31.0893 0.0183047 26.6936 -0.0205127 22.355C-0.0213544 22.2767 -0.022196 22.1983 -0.0230632 22.1176C-0.0378204 20.3874 -0.0224794 18.7146 0.343715 17.0158C0.370655 16.8861 0.370655 16.8861 0.398139 16.7537C1.39929 12.0427 4.11274 7.62324 7.90622 4.64081C7.98897 4.57379 8.07172 4.50677 8.15698 4.43772C11.5278 1.75899 15.9322 0.00548203 20.2634 -0.0172682Z" fill="#2952A1"/>
<path d="M20.2634 -0.0172682C20.3408 -0.0178748 20.4182 -0.0184815 20.4979 -0.0191066C23.7535 -0.0388395 23.7535 -0.0388395 25.1797 0.258C25.2664 0.275988 25.3532 0.293976 25.4426 0.312509C28.9032 1.05184 32.0567 2.48513 34.8047 4.72675C34.8524 4.76569 34.9002 4.80463 34.9495 4.84475C36.068 5.76378 37.0962 6.76083 37.9843 7.90644C38.0509 7.98875 38.1175 8.07106 38.1861 8.15586C40.8668 11.5248 42.6197 15.9333 42.6424 20.2636C42.643 20.341 42.6436 20.4184 42.6443 20.4981C42.6639 23.7429 42.6639 23.7429 42.3672 25.1799C42.3501 25.2644 42.333 25.3488 42.3154 25.4359C41.4367 29.6611 41.4367 29.6611 40.4765 30.4221C40.3755 30.4345 40.2745 30.4469 40.1704 30.4597C39.8735 30.475 39.8735 30.475 39.7461 30.6638C39.666 31.0142 39.7781 31.1771 39.9609 31.4855C39.991 31.5323 40.0212 31.579 40.0522 31.6272C40.1582 31.8506 40.1858 32.069 40.2187 32.3127C40.2901 32.31 40.2901 32.31 40.3629 32.3072C42.4249 32.2394 42.4249 32.2394 43.2668 33.0257C43.8249 33.6465 44.0259 34.2926 44.0249 35.1143C44.0258 35.223 44.0258 35.223 44.0267 35.3339C44.0283 35.5725 44.0287 35.811 44.0288 36.0496C44.0294 36.2164 44.03 36.3831 44.0306 36.5499C44.0316 36.8992 44.0319 37.2486 44.0318 37.5979C44.0318 38.0439 44.0341 38.4898 44.0371 38.9357C44.039 39.2802 44.0394 39.6246 44.0393 39.9691C44.0395 40.1334 44.0402 40.2977 44.0416 40.462C44.0494 41.5196 44.0511 42.4488 43.287 43.267C42.5578 43.9226 41.8337 44.0259 40.8814 44.0252C40.7753 44.0257 40.6692 44.0263 40.5599 44.0269C40.2697 44.0283 39.9796 44.0288 39.6894 44.0289C39.5078 44.0291 39.3263 44.0294 39.1447 44.0299C38.5102 44.0315 37.8758 44.0322 37.2413 44.032C36.6515 44.0319 36.0616 44.0337 35.4717 44.0365C34.964 44.0387 34.4563 44.0396 33.9486 44.0395C33.646 44.0395 33.3433 44.04 33.0406 44.0418C32.7027 44.0438 32.3648 44.043 32.0269 44.0419C31.9276 44.0429 31.8283 44.0439 31.726 44.0449C30.8376 44.038 30.1246 43.7577 29.4765 43.1408C29.0255 42.5685 28.8549 41.9852 28.8213 41.2609C28.8179 41.2018 28.8146 41.1426 28.8112 41.0817C28.8032 40.9374 28.796 40.793 28.789 40.6486C28.5303 40.709 28.5303 40.709 28.2734 40.8205C28.2371 40.9934 28.2012 41.1665 28.1696 41.3403C28.1015 41.508 28.1015 41.508 27.9507 41.6101C27.4813 41.8013 27.0153 41.9536 26.5224 42.072C26.4488 42.09 26.3752 42.108 26.2994 42.1266C25.0144 42.432 23.6918 42.6357 22.3699 42.6426C22.2924 42.6432 22.2149 42.6439 22.135 42.6445C18.8757 42.6642 18.8757 42.6642 17.4453 42.3674C17.3172 42.3411 17.3172 42.3411 17.1865 42.3143C13.4629 41.5268 10.0743 39.9098 7.21872 37.383C7.14394 37.3177 7.06916 37.2525 6.99212 37.1853C6.13243 36.4255 5.34837 35.6222 4.64059 34.7189C4.57368 34.6363 4.50677 34.5537 4.43783 34.4685C1.75158 31.0893 0.0183047 26.6936 -0.0205127 22.355C-0.0213544 22.2767 -0.022196 22.1983 -0.0230632 22.1176C-0.0378204 20.3874 -0.0224794 18.7146 0.343715 17.0158C0.370655 16.8861 0.370655 16.8861 0.398139 16.7537C1.39929 12.0427 4.11274 7.62324 7.90622 4.64081C7.98897 4.57379 8.07172 4.50677 8.15698 4.43772C11.5278 1.75899 15.9322 0.00548203 20.2634 -0.0172682ZM9.28122 8.07831C9.15418 8.18583 9.02708 8.29327 8.89987 8.40058C8.63244 8.63647 8.39699 8.88823 8.16705 9.16059C8.0319 9.32039 7.89487 9.4772 7.75549 9.63324C4.53006 13.2714 3.16513 18.0255 3.45093 22.8281C3.48375 23.2147 3.54267 23.5947 3.60934 23.9767C3.62644 24.0921 3.64333 24.2075 3.66003 24.3228C4.32679 28.7235 6.94638 32.9751 10.524 35.6206C14.547 38.5014 19.3225 39.7842 24.233 38.9906C24.9344 38.8676 25.6166 38.7105 26.2968 38.5002C26.416 38.4671 26.416 38.4671 26.5375 38.4334C27.3817 38.2026 27.3817 38.2026 28.1069 37.7375C28.213 37.4969 28.2052 37.299 28.1875 37.0392C28.269 37.0127 28.3505 36.9861 28.4345 36.9587C28.6911 36.8782 28.6911 36.8782 28.875 36.7814C28.8762 36.6821 28.8762 36.6821 28.8774 36.5807C28.882 36.277 28.8892 35.9733 28.8965 35.6696C28.8977 35.5654 28.8989 35.4612 28.9001 35.3539C28.9172 34.7235 28.9856 34.2359 29.3047 33.6877C29.345 33.6181 29.3853 33.5485 29.4268 33.4769C29.8464 32.9093 30.3397 32.5809 31.0234 32.3986C31.3202 32.367 31.6168 32.3551 31.915 32.3449C31.9947 32.3416 32.0743 32.3383 32.1564 32.3348C32.3516 32.3268 32.5469 32.3194 32.7422 32.3127C32.763 32.2494 32.7838 32.1862 32.8053 32.121C33.1102 31.2332 33.4601 30.8594 34.289 30.4221C34.6701 30.295 35.0712 30.3213 35.4708 30.3294C35.6665 30.3246 35.8227 30.315 36.0078 30.2502C36.1584 30.0629 36.2437 29.8658 36.3515 29.6486C36.5422 29.5674 36.5422 29.5674 36.7382 29.5519C37.0003 29.5295 37.0994 29.5005 37.2948 29.319C37.5494 28.9209 37.7154 28.4977 37.8877 28.0588C37.9442 27.9153 37.9442 27.9153 38.0018 27.769C38.5697 26.3 38.9338 24.8552 39.1015 23.2892C39.1096 23.2162 39.1177 23.1431 39.1261 23.0679C39.59 18.516 38.2896 13.8999 35.4374 10.3074C35.1495 9.95725 34.8495 9.61889 34.5468 9.28144C34.4393 9.15441 34.3319 9.0273 34.2246 8.90009C33.9887 8.63267 33.7369 8.39721 33.4646 8.16727C33.3048 8.03212 33.148 7.89509 32.9919 7.75571C30.3977 5.45579 26.9915 3.92562 23.5468 3.52363C23.4545 3.51255 23.3621 3.50147 23.2669 3.49006C22.9591 3.46132 22.6526 3.44631 22.3437 3.43769C22.263 3.43535 22.1822 3.43301 22.099 3.4306C17.2852 3.31308 12.876 4.85439 9.28122 8.07831Z" fill="#EEEEEE"/>
<path d="M34.9017 30.2349C34.9729 30.2338 35.0441 30.2327 35.1175 30.2316C35.1943 30.2309 35.2711 30.2303 35.3502 30.2297C35.4696 30.2286 35.4696 30.2286 35.5915 30.2276C35.7603 30.2264 35.9291 30.2254 36.0979 30.2248C36.2695 30.2238 36.4411 30.222 36.6127 30.2195C36.8615 30.2158 37.1102 30.2144 37.359 30.2135C37.4724 30.2113 37.4724 30.2113 37.588 30.209C38.4277 30.2119 39.1017 30.5111 39.7102 31.084C39.9919 31.4214 40.2188 31.864 40.2188 32.3126C40.2901 32.3099 40.2901 32.3099 40.3629 32.3072C42.425 32.2394 42.425 32.2394 43.2668 33.0256C43.825 33.6464 44.0259 34.2925 44.025 35.1142C44.0255 35.1867 44.0261 35.2592 44.0267 35.3338C44.0283 35.5724 44.0287 35.811 44.0289 36.0496C44.0294 36.2163 44.03 36.3831 44.0306 36.5498C44.0316 36.8992 44.032 37.2485 44.0318 37.5979C44.0318 38.0438 44.0342 38.4897 44.0371 38.9357C44.0391 39.2801 44.0394 39.6246 44.0393 39.9691C44.0395 40.1334 44.0403 40.2977 44.0416 40.462C44.0494 41.5196 44.0512 42.4488 43.287 43.267C42.5579 43.9225 41.8338 44.0258 40.8815 44.0251C40.7223 44.026 40.7223 44.026 40.5599 44.0269C40.2697 44.0282 39.9796 44.0288 39.6895 44.0289C39.5079 44.029 39.3263 44.0294 39.1447 44.0298C38.5103 44.0314 37.8758 44.0321 37.2414 44.032C36.6515 44.0319 36.0616 44.0337 35.4717 44.0364C34.964 44.0387 34.4564 44.0396 33.9487 44.0395C33.646 44.0394 33.3433 44.0399 33.0407 44.0417C32.7027 44.0437 32.3648 44.0429 32.0269 44.0419C31.9276 44.0429 31.8284 44.0438 31.7261 44.0448C30.8376 44.0379 30.1246 43.7577 29.4766 43.1408C29.0078 42.5459 28.8492 41.9587 28.85 41.205C28.8495 41.1333 28.8489 41.0615 28.8483 40.9876C28.8467 40.7514 28.8463 40.5152 28.8461 40.279C28.8456 40.1139 28.845 39.9489 28.8444 39.7839C28.8434 39.4382 28.8431 39.0926 28.8432 38.7469C28.8432 38.3054 28.8408 37.8639 28.8379 37.4223C28.8359 37.0815 28.8356 36.7407 28.8357 36.3998C28.8355 36.2371 28.8347 36.0744 28.8334 35.9117C28.8317 35.6835 28.8322 35.4553 28.8332 35.227C28.8323 35.1607 28.8313 35.0944 28.8303 35.026C28.8391 34.2526 29.2053 33.5549 29.7344 33.0001C30.4318 32.4355 31.032 32.2855 31.915 32.3019C32.0345 32.3031 32.0345 32.3031 32.1564 32.3042C32.3517 32.3063 32.5469 32.3091 32.7422 32.3126C32.7521 32.261 32.762 32.2093 32.7722 32.1561C32.9039 31.5122 33.0973 31.0895 33.6455 30.6973C34.0588 30.4439 34.409 30.2416 34.9017 30.2349Z" fill="white"/>
<path d="M20.2634 -0.0172682C20.3408 -0.0178748 20.4182 -0.0184815 20.4979 -0.0191066C23.7535 -0.0388395 23.7535 -0.0388395 25.1796 0.258C25.2664 0.275988 25.3532 0.293976 25.4426 0.312509C28.9032 1.05183 32.0567 2.48513 34.8046 4.72675C34.8524 4.76569 34.9002 4.80463 34.9495 4.84475C36.068 5.76378 37.0962 6.76083 37.9843 7.90644C38.0509 7.98875 38.1175 8.07105 38.1861 8.15586C40.8668 11.5248 42.6197 15.9333 42.6424 20.2636C42.643 20.341 42.6436 20.4184 42.6443 20.4981C42.6639 23.7429 42.6639 23.7429 42.3671 25.1799C42.3501 25.2644 42.333 25.3488 42.3154 25.4359C41.4393 29.6484 41.4393 29.6484 40.4765 30.4221C40.1865 30.4704 40.1865 30.4704 39.875 30.4221C39.6171 30.2018 39.6171 30.2018 39.4453 29.9064C39.4664 29.333 39.6966 28.8162 39.8964 28.2844C41.7604 23.1909 41.5783 17.6941 39.2895 12.7512C38.3522 10.7867 37.074 9.05129 35.5781 7.47675C35.5345 7.43072 35.491 7.38469 35.4461 7.33727C34.7665 6.62422 34.0483 6.00092 33.2578 5.41425C33.2089 5.37737 33.1601 5.3405 33.1098 5.30251C32.3381 4.72104 31.5327 4.23388 30.6796 3.78144C30.599 3.73794 30.599 3.73794 30.5167 3.69357C27.6418 2.15113 24.5205 1.4451 21.2695 1.43427C21.2043 1.43404 21.1391 1.43382 21.0719 1.43359C19.3216 1.43295 17.5778 1.63887 15.8984 2.14863C15.8338 2.1675 15.7693 2.18637 15.7027 2.20582C12.7324 3.08448 9.91835 4.64739 7.70194 6.82467C7.55177 6.97159 7.39939 7.11602 7.24691 7.26056C6.46062 8.01544 5.78759 8.82344 5.15621 9.71112C5.11736 9.76561 5.0785 9.8201 5.03847 9.87624C3.73996 11.7165 2.79198 13.7423 2.1484 15.8986C2.10104 16.0557 2.10104 16.0557 2.05273 16.2159C0.739021 20.999 1.43912 26.3315 3.78121 30.6799C3.81144 30.7369 3.84167 30.7939 3.87282 30.8526C4.72055 32.4449 5.80578 33.8423 7.04684 35.1486C7.0904 35.1946 7.13397 35.2407 7.17885 35.2881C7.85835 36.0011 8.57644 36.6248 9.36715 37.2111C9.41553 37.2475 9.46392 37.284 9.51377 37.3215C11.3666 38.7124 13.4319 39.7008 15.6406 40.3908C15.7048 40.4111 15.769 40.4313 15.8352 40.4522C18.4638 41.2612 21.4305 41.4465 24.1484 40.9924C24.2236 40.9804 24.2989 40.9684 24.3764 40.956C25.2516 40.8148 26.0927 40.6469 26.9357 40.371C27.242 40.2792 27.4419 40.2456 27.7578 40.3049C28.0102 40.4821 28.0102 40.4821 28.1875 40.7346C28.2358 41.0407 28.2358 41.0407 28.1875 41.3361C27.9232 41.6835 27.6059 41.7847 27.1992 41.8947C27.1036 41.9215 27.1036 41.9215 27.0062 41.9489C26.5157 42.0825 26.0213 42.1952 25.5234 42.2975C25.4594 42.3108 25.3954 42.3241 25.3295 42.3378C24.0036 42.5961 22.6922 42.6574 21.3447 42.652C21.2613 42.6519 21.1779 42.6517 21.0919 42.6515C19.8609 42.6471 18.6547 42.6183 17.4453 42.3674C17.3172 42.3411 17.3172 42.3411 17.1865 42.3142C13.4629 41.5268 10.0743 39.9098 7.21871 37.383C7.14394 37.3177 7.06916 37.2525 6.99212 37.1853C6.13243 36.4254 5.34836 35.6222 4.64059 34.7189C4.57368 34.6363 4.50677 34.5536 4.43783 34.4685C1.75158 31.0893 0.0183047 26.6936 -0.0205127 22.355C-0.0213544 22.2767 -0.022196 22.1983 -0.0230632 22.1176C-0.0378204 20.3874 -0.0224794 18.7146 0.343715 17.0158C0.370655 16.8861 0.370655 16.8861 0.398139 16.7537C1.39929 12.0427 4.11274 7.62324 7.90621 4.64081C7.98897 4.57379 8.07172 4.50677 8.15698 4.43772C11.5278 1.75899 15.9322 0.00548202 20.2634 -0.0172682Z" fill="#1A4393"/>
<path d="M22.3437 3.43702C22.4065 3.43822 22.4693 3.43943 22.534 3.44067C26.941 3.55364 31.0667 5.79084 34.1171 8.85108C34.1758 8.9068 34.2345 8.96252 34.295 9.01993C37.3013 11.9062 39.0753 16.3193 39.2116 20.4449C39.2666 23.3103 38.7835 25.9829 37.6728 28.6221C37.65 28.6778 37.6273 28.7335 37.6039 28.791C37.4486 29.1444 37.2817 29.3579 36.953 29.562C36.6551 29.5569 36.447 29.5285 36.185 29.3848C36.0355 29.1122 36.0583 28.8313 36.0937 28.5308C36.1785 28.2532 36.2949 27.994 36.4159 27.7305C36.4795 27.5857 36.543 27.4409 36.6063 27.2961C36.6367 27.2272 36.6672 27.1583 36.6986 27.0874C38.2703 23.484 38.0744 19.0845 36.7053 15.4572C36.1331 14.0154 35.4079 12.658 34.4609 11.4292C34.4036 11.3538 34.3463 11.2783 34.2873 11.2006C32.312 8.66209 29.7446 6.89674 26.7426 5.77344C26.679 5.74955 26.6155 5.72566 26.55 5.70104C22.7794 4.336 18.2669 4.58825 14.6421 6.26284C14.4585 6.35056 14.2759 6.44024 14.0937 6.53077C14.0316 6.56112 13.9695 6.59147 13.9055 6.62275C13.0183 7.05974 12.2148 7.56323 11.4296 8.16358C11.3539 8.22096 11.2783 8.27835 11.2003 8.33747C9.24316 9.86213 7.74639 11.7163 6.61711 13.9214C6.57496 14.0025 6.57496 14.0025 6.53197 14.0853C5.90093 15.3131 5.41939 16.6905 5.15617 18.0464C5.14466 18.1033 5.13316 18.1601 5.1213 18.2187C4.62279 20.7741 4.73458 23.6596 5.58586 26.1245C5.60752 26.1908 5.62917 26.2571 5.65149 26.3254C6.22762 28.0834 7.01986 29.735 8.16398 31.1948C8.24956 31.3073 8.24956 31.3073 8.33686 31.4221C10.9312 34.7637 14.8123 37.0576 19.019 37.624C21.5603 37.925 24.1365 37.7628 26.5548 36.887C27.0064 36.7252 27.3625 36.6505 27.8437 36.6948C28.0639 36.8721 28.0639 36.8721 28.1874 37.1245C28.1787 37.63 28.1787 37.63 27.9919 37.8624C25.9808 39.5111 21.7939 39.3638 19.3238 39.1464C18.8648 39.0962 18.4133 39.0204 17.9609 38.9292C17.88 38.913 17.7992 38.8969 17.716 38.8802C13.0514 37.9088 8.91765 35.0595 6.30558 31.082C3.779 27.1253 2.78359 22.303 3.7488 17.6833C4.43041 14.5973 5.85103 11.7781 7.95531 9.41991C8.08788 9.26962 8.21703 9.1167 8.34626 8.96354C8.52467 8.75491 8.70487 8.56567 8.91594 8.38917C9.10298 8.2309 9.2867 8.07242 9.46479 7.90409C12.9517 4.61845 17.6619 3.33725 22.3437 3.43702Z" fill="#1A4393"/>
<path d="M17.9165 21.9751C18.0343 21.9743 18.0343 21.9743 18.1544 21.9734C18.4123 21.9718 18.6702 21.9714 18.9281 21.9712C19.109 21.9707 19.2899 21.9701 19.4708 21.9695C19.8497 21.9685 20.2286 21.9681 20.6075 21.9682C21.0898 21.9683 21.5721 21.9659 22.0544 21.963C22.4281 21.961 22.8018 21.9607 23.1756 21.9608C23.3532 21.9606 23.5309 21.9598 23.7085 21.9585C25.3542 21.9472 26.8621 22.124 28.1218 23.3043C29.2236 24.4426 29.5934 25.7721 29.6002 27.3175C29.603 27.4301 29.6058 27.5428 29.6087 27.6589C29.6131 28.4522 29.5105 29.0654 28.9618 29.6629C28.4695 30.1416 27.9563 30.271 27.2737 30.2731C27.1069 30.2742 27.1069 30.2742 26.9367 30.2753C26.815 30.2752 26.6933 30.2752 26.5716 30.2751C26.4422 30.2756 26.3128 30.2762 26.1835 30.2768C25.8333 30.2783 25.4832 30.2787 25.133 30.2788C24.914 30.279 24.695 30.2793 24.476 30.2798C23.7113 30.2814 22.9466 30.2821 22.1819 30.2819C21.4701 30.2818 20.7583 30.2837 20.0465 30.2864C19.4344 30.2886 18.8223 30.2895 18.2101 30.2894C17.845 30.2894 17.4798 30.2899 17.1147 30.2917C16.7712 30.2934 16.4278 30.2934 16.0843 30.2921C15.9587 30.2919 15.833 30.2923 15.7073 30.2934C14.8999 30.2996 14.3373 30.269 13.7104 29.7217C13.6562 29.6586 13.6019 29.5954 13.546 29.5304C13.4903 29.4677 13.4347 29.405 13.3774 29.3404C12.996 28.7871 13.0306 28.1852 13.0307 27.5383C13.0303 27.3684 13.0272 27.1985 13.024 27.0286C13.02 25.7075 13.4243 24.442 14.3365 23.459C15.3643 22.5254 16.5213 21.9736 17.9165 21.9751Z" fill="white"/>
<path d="M24.5189 12.1493C25.411 12.9852 26.0416 14.1549 26.1568 15.3774C26.1938 16.6095 25.9111 17.7219 25.1796 18.7343C25.1231 18.8142 25.1231 18.8142 25.0654 18.8958C24.3256 19.8461 23.1644 20.4033 21.9999 20.6249C20.5696 20.7814 19.376 20.3875 18.2106 19.5504C17.3054 18.8218 16.6737 17.6416 16.4999 16.4999C16.3718 15.1297 16.6754 13.9033 17.5019 12.7831C19.2744 10.6513 22.385 10.3818 24.5189 12.1493Z" fill="white"/>
<path d="M34.9017 30.2349C34.9729 30.2338 35.0441 30.2327 35.1175 30.2316C35.1943 30.2309 35.2711 30.2303 35.3502 30.2297C35.4696 30.2286 35.4696 30.2286 35.5915 30.2276C35.7603 30.2264 35.9291 30.2254 36.0979 30.2248C36.2695 30.2238 36.4411 30.222 36.6127 30.2195C36.8615 30.2158 37.1102 30.2144 37.359 30.2135C37.4724 30.2113 37.4724 30.2113 37.588 30.209C38.4277 30.2119 39.1017 30.5111 39.7102 31.084C39.9919 31.4214 40.2188 31.864 40.2188 32.3126C40.2901 32.3099 40.2901 32.3099 40.3629 32.3072C42.425 32.2394 42.425 32.2394 43.2668 33.0256C43.825 33.6464 44.0259 34.2925 44.025 35.1142C44.0255 35.1867 44.0261 35.2592 44.0267 35.3338C44.0283 35.5724 44.0287 35.811 44.0289 36.0496C44.0294 36.2163 44.03 36.3831 44.0306 36.5498C44.0316 36.8992 44.032 37.2485 44.0318 37.5979C44.0318 38.0438 44.0342 38.4897 44.0371 38.9357C44.0391 39.2801 44.0394 39.6246 44.0393 39.9691C44.0395 40.1334 44.0403 40.2977 44.0416 40.462C44.0494 41.5196 44.0512 42.4488 43.287 43.267C42.5579 43.9225 41.8338 44.0258 40.8815 44.0251C40.7223 44.026 40.7223 44.026 40.5599 44.0269C40.2697 44.0282 39.9796 44.0288 39.6895 44.0289C39.5079 44.029 39.3263 44.0294 39.1447 44.0298C38.5103 44.0314 37.8758 44.0321 37.2414 44.032C36.6515 44.0319 36.0616 44.0337 35.4717 44.0364C34.964 44.0387 34.4564 44.0396 33.9487 44.0395C33.646 44.0394 33.3433 44.0399 33.0407 44.0417C32.7027 44.0437 32.3648 44.0429 32.0269 44.0419C31.9276 44.0429 31.8284 44.0438 31.7261 44.0448C30.8376 44.0379 30.1246 43.7577 29.4766 43.1408C29.0078 42.5459 28.8492 41.9587 28.85 41.205C28.8495 41.1333 28.8489 41.0615 28.8483 40.9876C28.8467 40.7514 28.8463 40.5152 28.8461 40.279C28.8456 40.1139 28.845 39.9489 28.8444 39.7839C28.8434 39.4382 28.8431 39.0926 28.8432 38.7469C28.8432 38.3054 28.8408 37.8639 28.8379 37.4223C28.8359 37.0815 28.8356 36.7407 28.8357 36.3998C28.8355 36.2371 28.8347 36.0744 28.8334 35.9117C28.8317 35.6835 28.8322 35.4553 28.8332 35.227C28.8323 35.1607 28.8313 35.0944 28.8303 35.026C28.8391 34.2526 29.2053 33.5549 29.7344 33.0001C30.4318 32.4355 31.032 32.2855 31.915 32.3019C32.0345 32.3031 32.0345 32.3031 32.1564 32.3042C32.3517 32.3063 32.5469 32.3091 32.7422 32.3126C32.7521 32.261 32.762 32.2093 32.7722 32.1561C32.9039 31.5122 33.0973 31.0895 33.6455 30.6973C34.0588 30.4439 34.409 30.2416 34.9017 30.2349ZM34.2891 31.9689C34.0701 32.3745 33.9605 32.8009 33.8459 33.2462C33.7734 33.4298 33.7734 33.4298 33.5156 33.6017C33.2815 33.6236 33.2815 33.6236 33.001 33.6252C32.8995 33.627 32.798 33.6287 32.6933 33.6306C32.4799 33.6328 32.2663 33.6344 32.0528 33.6353C31.2961 33.6432 31.2961 33.6432 30.6797 34.0314C30.2568 34.4886 30.2371 34.8454 30.2362 35.4496C30.2357 35.5141 30.2353 35.5786 30.2349 35.645C30.2336 35.8578 30.233 36.0707 30.2325 36.2836C30.2321 36.4319 30.2316 36.5803 30.2311 36.7286C30.2302 37.0396 30.2297 37.3506 30.2294 37.6616C30.2289 38.0592 30.2268 38.4568 30.2244 38.8544C30.2228 39.1609 30.2223 39.4674 30.2222 39.7739C30.2219 39.9204 30.2212 40.0669 30.2201 40.2135C30.2186 40.4189 30.2188 40.6243 30.2194 40.8298C30.2186 40.8898 30.2178 40.9497 30.217 41.0115C30.221 41.485 30.3239 41.8908 30.6337 42.2592C31.032 42.5656 31.2999 42.6355 31.7933 42.6372C31.8791 42.6377 31.9648 42.6382 32.0532 42.6387C32.1468 42.6388 32.2404 42.6389 32.3368 42.639C32.4358 42.6394 32.5347 42.6398 32.6367 42.6403C32.9644 42.6415 33.292 42.6421 33.6197 42.6426C33.8472 42.6431 34.0748 42.6436 34.3024 42.6441C34.7186 42.6449 35.1348 42.6454 35.5511 42.6457C36.1631 42.646 36.7751 42.6476 37.3871 42.65C37.8607 42.6519 38.3343 42.6528 38.8079 42.6529C39.0906 42.653 39.3732 42.6536 39.6558 42.655C39.9712 42.6565 40.2865 42.6563 40.6019 42.6558C40.7418 42.657 40.7418 42.657 40.8844 42.6582C41.4251 42.6552 41.8296 42.6166 42.2507 42.2414C42.618 41.7783 42.6379 41.4399 42.6388 40.8631C42.6393 40.7987 42.6397 40.7342 42.6401 40.6678C42.6414 40.4549 42.642 40.2421 42.6425 40.0292C42.643 39.8809 42.6434 39.7325 42.6439 39.5842C42.6448 39.2732 42.6453 38.9622 42.6456 38.6512C42.6461 38.2536 42.6482 37.856 42.6506 37.4584C42.6522 37.1519 42.6527 36.8454 42.6528 36.5389C42.6531 36.3924 42.6538 36.2458 42.6549 36.0993C42.6564 35.8938 42.6562 35.6884 42.6556 35.483C42.6568 35.393 42.6568 35.393 42.658 35.3012C42.654 34.8282 42.5525 34.4185 42.2383 34.0535C41.8403 33.753 41.5837 33.6778 41.0919 33.6725C40.9935 33.6705 40.895 33.6684 40.7936 33.6663C40.5862 33.6626 40.3787 33.6599 40.1713 33.6583C40.0234 33.6547 40.0234 33.6547 39.8727 33.651C39.7825 33.6498 39.6923 33.6485 39.5994 33.6472C39.3006 33.5905 39.2008 33.4951 39.0156 33.2579C38.9158 32.9546 38.8478 32.6507 38.7769 32.3395C38.655 32.009 38.5362 31.8978 38.2422 31.7111C37.9203 31.6038 37.6173 31.6079 37.2818 31.6047C37.1783 31.6036 37.1783 31.6036 37.0727 31.6026C36.9267 31.6014 36.7807 31.6004 36.6347 31.5998C36.4123 31.5983 36.1901 31.5945 35.9677 31.5907C35.8256 31.5899 35.6836 31.5891 35.5415 31.5885C35.4755 31.587 35.4094 31.5855 35.3413 31.584C34.8956 31.5858 34.641 31.6719 34.2891 31.9689Z" fill="#2952A1"/>
<path d="M38.0489 35.5458C38.4527 35.8333 38.693 36.179 38.9298 36.6093C39.0096 36.7529 39.0096 36.7529 39.0909 36.8993C39.3383 37.6964 39.1959 38.4885 38.8251 39.223C38.4032 39.9238 37.7919 40.3219 37.0036 40.5208C36.0749 40.6948 35.412 40.4584 34.6329 39.9609C34.0899 39.5156 33.7983 38.8392 33.6876 38.1562C33.6046 37.2579 33.8404 36.6127 34.3949 35.9094C35.4047 34.8506 36.834 34.8144 38.0489 35.5458Z" fill="#2952A1"/>
<path d="M36.7814 36.4371C37.269 36.6059 37.5818 36.9208 37.8126 37.3824C37.8593 37.8082 37.8611 38.1448 37.6676 38.5318C37.3589 38.8822 37.0846 39.1519 36.6051 39.2076C36.1292 39.2232 35.8663 39.1652 35.4923 38.8434C35.1226 38.4337 35.0314 38.1183 35.0385 37.5785C35.0891 37.1676 35.3332 36.9313 35.632 36.6681C36.0145 36.3962 36.3213 36.3952 36.7814 36.4371Z" fill="#ECECEC"/>
</g>
<defs>
<clipPath id="clip0_11319_12012">
<rect width="44" height="44" fill="white"/>
</clipPath>
</defs>
</svg>
