<svg width="28" height="28" viewBox="0 0 28 28" fill="none" xmlns="http://www.w3.org/2000/svg">
<g clip-path="url(#clip0_3467_6080)">
<path d="M24.439 27.9999H2.29649C2.25399 27.9857 2.21223 27.9656 2.16824 27.9589C1.50987 27.8619 0.983463 27.5426 0.561447 27.0316C0.240087 26.6436 0.0961841 26.1841 0 25.7029C0 20.4329 0 15.163 0 9.89302C0.00969297 9.8781 0.0260965 9.86392 0.0283333 9.84751C0.198333 8.55688 1.31228 7.57137 2.76473 7.6318C3.34631 7.65567 3.93087 7.6318 4.5132 7.63851C4.66455 7.64001 4.79578 7.60643 4.92626 7.52885C5.40346 7.24461 5.88438 6.96709 6.36381 6.68807C9.94126 4.60366 13.5202 2.52075 17.0962 0.433355C17.8731 -0.0202308 18.6701 -0.153024 19.5209 0.20507C20.1107 0.453498 20.5133 0.893656 20.8242 1.43751C21.9613 3.42941 23.1036 5.41907 24.2347 7.4147C24.3361 7.59301 24.4561 7.67805 24.6529 7.70566C25.0779 7.76534 25.45 7.95408 25.7796 8.2234C26.4484 8.7695 26.7243 9.49389 26.7243 10.3399C26.7243 11.5156 26.728 12.6914 26.7205 13.8671C26.719 14.0462 26.7712 14.1349 26.936 14.2185C27.61 14.5624 27.9746 15.1301 27.9858 15.8836C28.0045 17.1683 28.003 18.4537 27.9858 19.7384C27.9761 20.5053 27.6018 21.0753 26.9181 21.4207C26.7578 21.5012 26.7198 21.59 26.7205 21.7534C26.7265 22.9381 26.7257 24.1228 26.7228 25.3075C26.7205 26.1968 26.4051 26.9383 25.6864 27.4904C25.3158 27.7754 24.8833 27.9014 24.4382 27.9992L24.439 27.9999ZM13.383 8.90602C9.83911 8.90602 6.29521 8.90602 2.75131 8.90602C1.76785 8.90602 1.26903 9.40213 1.26829 10.3824C1.26829 15.3413 1.26829 20.3001 1.26829 25.259C1.26829 26.2206 1.77605 26.7302 2.73416 26.7309C9.82196 26.7317 16.9098 26.7317 23.9976 26.7309C24.9415 26.7309 25.4411 26.2259 25.4433 25.2739C25.4455 24.2257 25.4433 23.1776 25.4433 22.1294C25.4433 21.6385 25.4433 21.643 24.9572 21.6378C23.7187 21.6243 22.478 21.696 21.2418 21.6042C19.1742 21.4513 17.551 19.4221 17.8366 17.3832C18.1176 15.3719 19.6857 14.0036 21.7234 13.9969C22.8717 13.9932 24.0192 13.9917 25.1674 14.0007C25.368 14.0022 25.4522 13.9686 25.4493 13.7381C25.4366 12.5899 25.4455 11.441 25.4411 10.2921C25.4411 10.1385 25.4291 9.9803 25.3896 9.83333C25.23 9.24173 24.7379 8.90676 24.0423 8.90676C20.4894 8.90602 16.9359 8.90676 13.383 8.90676V8.90602ZM23.715 20.3479C23.715 20.3479 23.715 20.3546 23.715 20.3576C24.4621 20.3576 25.2092 20.3613 25.9555 20.3561C26.4797 20.3531 26.7205 20.1114 26.722 19.5825C26.7265 18.4067 26.7257 17.231 26.722 16.0552C26.7205 15.5173 26.473 15.2674 25.9376 15.2659C24.5351 15.2622 23.1319 15.2585 21.7294 15.2667C20.7817 15.2726 19.9973 15.6397 19.4941 16.4551C18.4487 18.1471 19.5403 20.2285 21.5296 20.3412C22.2558 20.3822 22.9865 20.3479 23.715 20.3479ZM7.38231 7.56839C7.38604 7.59077 7.38977 7.61315 7.3935 7.63553C8.09959 7.63553 8.80643 7.6318 9.51253 7.63851C9.69222 7.64001 9.84582 7.59897 10.0017 7.50796C13.1213 5.68615 16.2439 3.86882 19.3658 2.05075C19.6529 1.88364 19.6536 1.87245 19.4098 1.63148C18.9744 1.20251 18.392 1.157 17.7821 1.51212C15.1784 3.0273 12.5763 4.54398 9.97332 6.05991C9.1099 6.56274 8.24648 7.06556 7.38306 7.56839H7.38231ZM12.4122 7.63553C12.6963 7.63553 12.9684 7.60718 13.2324 7.64075C14.3307 7.77802 15.2702 7.44604 16.1977 6.85294C17.6524 5.92339 19.1719 5.09381 20.6699 4.23214C20.8511 4.1277 20.8727 4.04862 20.7601 3.88076C20.6237 3.67709 20.4969 3.46373 20.3948 3.24216C20.2971 3.03029 20.2039 3.0273 20.0093 3.14219C17.554 4.58203 15.092 6.01142 12.6329 7.44604C12.5598 7.48856 12.4622 7.50721 12.4122 7.63478V7.63553ZM17.4429 7.58032C17.4757 7.61688 17.4809 7.62807 17.4861 7.62807C19.2249 7.63105 20.9637 7.6318 22.7032 7.63628C22.9052 7.63628 22.853 7.54675 22.7912 7.43783C22.3975 6.75148 21.9986 6.06737 21.6153 5.37431C21.5221 5.20571 21.4431 5.24376 21.3186 5.31761C20.5029 5.79731 19.6849 6.27253 18.8677 6.74925C18.398 7.02304 17.9275 7.29758 17.4429 7.57958V7.58032Z" fill="#EDC046"/>
<path d="M21.6198 16.5508C22.3207 16.5456 22.8963 17.1081 22.903 17.8049C22.9097 18.4972 22.3364 19.0784 21.6415 19.0843C20.9451 19.0903 20.3717 18.5271 20.3605 17.8273C20.3501 17.1327 20.9182 16.5568 21.6191 16.5516L21.6198 16.5508Z" fill="#EDC046"/>
</g>
<defs>
<clipPath id="clip0_3467_6080">
<rect width="28" height="28" fill="white"/>
</clipPath>
</defs>
</svg>
