<svg width="26" height="26" viewBox="0 0 26 26" fill="none" xmlns="http://www.w3.org/2000/svg">
<g clip-path="url(#clip0_3467_6077)">
<path d="M0 12.7492C0 11.4802 0 10.2105 0 8.94148C0.410384 7.86578 0.826194 7.58363 2.00104 7.58363C3.39703 7.58363 4.79301 7.58363 6.18967 7.58363C6.27514 7.58363 6.36061 7.57617 6.44607 7.5721C6.28735 7.45951 6.12659 7.38965 5.96854 7.31369C4.73264 6.71818 3.62494 5.95922 2.84284 4.80145C2.35038 4.07233 2.05124 3.27539 2.20522 2.38485C2.40057 1.25421 3.14469 0.567144 4.20016 0.276175C6.63397 -0.394613 8.78424 0.162229 10.5947 1.93178C11.642 2.95594 12.3224 4.2168 12.8447 5.57059C12.8881 5.68318 12.9315 5.79577 12.9966 5.96329C13.0638 5.79305 13.1079 5.68589 13.1486 5.57805C13.6078 4.37687 14.1993 3.24894 15.0648 2.28718C16.8474 0.304662 19.0567 -0.397326 21.6445 0.222593C22.7637 0.490502 23.5662 1.18503 23.786 2.37739C23.9522 3.27878 23.6422 4.08115 23.1429 4.8157C22.3574 5.97008 21.2511 6.73039 20.0111 7.31979C19.8558 7.39372 19.6991 7.46494 19.5431 7.53683L19.5546 7.58363C19.6441 7.58363 19.7344 7.58363 19.8239 7.58363C21.3128 7.58363 22.8024 7.57956 24.2913 7.58499C25.3068 7.58906 25.9925 8.28291 25.9946 9.29689C25.9973 10.3461 26.0027 11.3954 25.9925 12.444C25.9858 13.1209 25.669 13.6194 25.0612 13.9266C24.8129 14.0521 24.547 14.0826 24.2737 14.0819C23.8253 14.0813 23.8253 14.084 23.8253 14.5418C23.8253 16.5297 23.8253 18.5184 23.8253 20.5063C23.8253 21.7841 23.8301 23.0613 23.8233 24.3391C23.8185 25.1428 23.3695 25.7227 22.6037 25.9479C22.565 25.9594 22.5297 25.9818 22.4924 25.9988H3.50352C2.38497 25.6447 2.15367 24.9109 2.16113 23.9864C2.18622 20.842 2.17062 17.6977 2.17062 14.5526C2.17062 14.0846 2.17062 14.0785 1.70869 14.0819C1.00798 14.0867 0.491104 13.7855 0.16551 13.167C0.0956431 13.0347 0.0542656 12.8882 0 12.7485L0 12.7492ZM12.4526 19.5174C12.4526 17.8089 12.4485 16.1011 12.4573 14.3926C12.4587 14.1687 12.4105 14.0935 12.1691 14.0941C9.28484 14.103 6.4013 14.103 3.51709 14.0941C3.28307 14.0935 3.2444 14.166 3.2444 14.3797C3.25119 17.6611 3.24915 20.9417 3.24915 24.2231C3.24915 24.7318 3.44112 24.921 3.958 24.921C6.69841 24.9217 9.43814 24.9183 12.1786 24.9271C12.4078 24.9278 12.458 24.8607 12.4567 24.6423C12.4478 22.9338 12.4519 21.2259 12.4519 19.5174H12.4526ZM13.544 19.4991C13.544 21.2076 13.5474 22.9154 13.5399 24.624C13.5393 24.841 13.5752 24.9285 13.8248 24.9271C16.5652 24.917 19.305 24.921 22.0454 24.9204C22.5568 24.9204 22.7468 24.7271 22.7475 24.2143C22.7475 20.9329 22.7447 17.6522 22.7536 14.3709C22.7536 14.1423 22.6912 14.0935 22.4727 14.0941C19.5885 14.1016 16.705 14.1016 13.8208 14.0941C13.5983 14.0941 13.5379 14.1491 13.5393 14.3743C13.5494 16.0821 13.5447 17.7906 13.5447 19.4991H13.544ZM6.96092 8.68104C6.96092 8.68104 6.96092 8.67697 6.96092 8.67493C5.21764 8.67493 3.47503 8.67358 1.73175 8.67561C1.27728 8.67561 1.08124 8.87095 1.07989 9.32469C1.07649 10.3312 1.07717 11.3384 1.07989 12.3449C1.08124 12.7946 1.28677 13.0015 1.72836 13.0022C5.22306 13.0028 8.71777 13.0008 12.2118 13.0076C12.4241 13.0076 12.4573 12.935 12.456 12.7485C12.4492 11.4795 12.4472 10.2105 12.4573 8.94148C12.4594 8.72784 12.3983 8.67493 12.1901 8.67629C10.4468 8.68443 8.7042 8.68104 6.96092 8.68104ZM19.0581 8.67493C19.0581 8.67493 19.0581 8.679 19.0581 8.68104C17.2978 8.68104 15.5383 8.68375 13.778 8.67697C13.5861 8.67629 13.5386 8.73123 13.5399 8.9191C13.5481 10.1962 13.5501 11.4741 13.5386 12.7519C13.5366 12.9757 13.6139 13.0083 13.8126 13.0076C17.2816 13.0015 20.7505 13.0035 24.2201 13.0028C24.718 13.0028 24.916 12.8095 24.9167 12.3178C24.9188 11.3364 24.9181 10.355 24.9167 9.37353C24.916 8.8567 24.7329 8.67561 24.2106 8.67561C22.4931 8.67493 20.7756 8.67561 19.0574 8.67561L19.0581 8.67493ZM5.95497 1.08668C5.47675 1.08261 4.81268 1.1328 4.19473 1.43259C3.38617 1.82462 3.08364 2.52864 3.34073 3.39069C3.42145 3.66064 3.54422 3.90955 3.69752 4.14355C4.06856 4.71192 4.55424 5.16839 5.11182 5.54617C7.24649 6.99152 9.66674 7.44527 12.1806 7.5721C12.3468 7.58024 12.3264 7.50834 12.2973 7.39236C11.9737 6.07792 11.4907 4.83062 10.7154 3.71218C9.60976 2.1183 8.13238 1.16197 5.95497 1.08668ZM20.1359 1.08736C18.3852 1.12873 17.1079 1.70592 16.0653 2.79519C14.8193 4.09743 14.1484 5.6981 13.7 7.41203C13.6471 7.61347 13.7672 7.5721 13.8703 7.56735C15.1835 7.5097 16.4798 7.34082 17.7462 6.97795C19.1496 6.57643 20.4656 6.0006 21.5611 5.00425C22.023 4.58441 22.4056 4.10353 22.6186 3.50735C22.9645 2.53881 22.6152 1.7629 21.6649 1.36816C21.0985 1.1328 20.5029 1.0894 20.1366 1.08668L20.1359 1.08736Z" fill="#EDC046"/>
</g>
<defs>
<clipPath id="clip0_3467_6077">
<rect width="26" height="26" fill="white"/>
</clipPath>
</defs>
</svg>
