<svg width="30" height="30" viewBox="0 0 30 30" fill="none" xmlns="http://www.w3.org/2000/svg">
<g clip-path="url(#clip0_3467_5992)">
<path d="M25.7424 30H2.9476C2.87424 29.983 2.80153 29.96 2.72686 29.9509C1.39978 29.793 0.402183 28.9114 0.103493 27.6242C0.059607 27.4356 0.0340611 27.243 0 27.0524C0 20.6116 0 14.1701 0 7.72926C0.0170306 7.65655 0.0386463 7.58515 0.0491266 7.51179C0.294105 5.85131 1.45939 4.83472 3.13231 4.8262C3.71004 4.82293 4.28777 4.81376 4.86485 4.83079C5.12489 4.83865 5.25721 4.77052 5.36725 4.50917C6.29738 2.29651 7.93428 0.883624 10.2485 0.246288C10.7338 0.112664 11.2362 0.102838 11.7249 0H12.3144C12.3871 0.0176856 12.4592 0.0438865 12.5332 0.0517467C15.4664 0.355022 17.51 1.86943 18.6727 4.57271C18.7546 4.76266 18.8476 4.8321 19.0546 4.83013C20.026 4.81965 20.9974 4.81965 21.9681 4.82686C23.1609 4.83603 23.9712 5.65546 23.9777 6.85349C23.9823 7.68275 23.9856 8.51201 23.9745 9.34127C23.9718 9.55415 24.0321 9.62817 24.2496 9.62096C24.6858 9.60655 25.1227 9.61376 25.559 9.61769C26.7478 9.62817 27.5686 10.4509 27.5758 11.6417C27.5797 12.395 27.5764 13.1476 27.5764 13.9009C27.5764 14.2336 27.7404 14.4022 28.0683 14.4066C28.9487 14.4183 29.6587 14.9469 29.8959 15.7703C29.9345 15.9052 29.9653 16.0428 29.9993 16.1797V23.3849C29.5513 24.8266 29.2893 25.0415 27.769 25.1705C27.5712 25.1876 27.5751 25.2871 27.5751 25.426C27.5764 26.2965 27.5836 27.1677 27.5725 28.0382C27.5614 28.9297 26.9686 29.6758 26.117 29.909C25.9926 29.943 25.8531 29.9155 25.7417 30.0013L25.7424 30ZM1.25306 10.2072C1.24258 10.3382 1.2321 10.4109 1.2321 10.483C1.23144 15.9622 1.22882 21.4408 1.23406 26.9201C1.23472 28.0205 1.98865 28.7659 3.09105 28.7666C10.5563 28.7692 18.0216 28.7686 25.4869 28.7672C26.1013 28.7672 26.3804 28.4849 26.3836 27.862C26.3876 27.0983 26.3692 26.3338 26.3921 25.5701C26.4013 25.2583 26.3201 25.1646 25.9998 25.1672C24.319 25.183 22.6382 25.1862 20.9574 25.1718C17.9823 25.1456 15.6092 22.7672 15.5961 19.8177C15.5836 16.8524 17.9686 14.4288 20.9352 14.4079C22.6487 14.3954 24.3622 14.4007 26.0758 14.4105C26.3175 14.4118 26.3954 14.3522 26.3902 14.1026C26.3738 13.35 26.3849 12.5967 26.3843 11.8434C26.3843 11.0515 26.14 10.8079 25.35 10.8079C18.19 10.8079 11.0306 10.8046 3.87052 10.8118C2.96004 10.8124 2.05611 10.8341 1.25306 10.2072ZM24.3576 23.979C25.536 23.979 26.7144 23.979 27.8935 23.979C28.5524 23.979 28.7686 23.7603 28.7686 23.0908C28.7692 20.8867 28.7699 18.6819 28.7686 16.4777C28.7686 15.8214 28.54 15.5954 27.8804 15.5954C25.6212 15.5948 23.3627 15.5954 21.1035 15.5941C20.7747 15.5941 20.4491 15.6196 20.1288 15.6904C17.9528 16.1699 16.593 18.0963 16.8354 20.3522C17.0528 22.3801 18.8836 23.9692 21.019 23.9784C22.1319 23.983 23.2454 23.979 24.3583 23.979H24.3576ZM12.6852 4.97686C12.5974 5.03777 12.6026 5.09476 12.6026 5.14847C12.6026 6.55677 12.6059 7.96441 12.598 9.37271C12.5967 9.5869 12.6897 9.62096 12.8745 9.62031C14.326 9.61506 15.7782 9.6131 17.2297 9.62227C17.4282 9.62358 17.5166 9.5548 17.5847 9.37664C17.869 8.63319 18.0177 7.8655 17.9935 7.07227C17.8801 3.43821 14.6941 0.776856 11.0954 1.30153C7.36441 1.8452 5.0548 5.79301 6.40022 9.31244C6.48799 9.54236 6.59542 9.6262 6.84563 9.62424C8.25393 9.61179 9.66157 9.61376 11.0699 9.62227C11.3063 9.62358 11.4138 9.59083 11.4105 9.30917C11.3941 7.94476 11.4039 6.58035 11.4013 5.21594C11.4013 5.14585 11.4334 5.06463 11.3358 4.97817C10.9146 5.40065 10.4993 5.82838 10.0723 6.24301C9.78996 6.51747 9.44149 6.52533 9.1952 6.28624C8.95284 6.05044 8.95218 5.68166 9.21943 5.41114C9.99367 4.62642 10.7731 3.84694 11.5579 3.07271C11.8448 2.79039 12.1618 2.79432 12.4572 3.0714C12.7041 3.30262 12.938 3.5476 13.1771 3.78668C13.7175 4.32707 14.2644 4.86092 14.7943 5.41114C15.1559 5.78712 15.0085 6.32751 14.5323 6.43624C14.2814 6.49389 14.0869 6.39694 13.9159 6.22271C13.5052 5.8048 13.0913 5.38886 12.6852 4.97817V4.97686ZM20.7799 9.61703C21.3681 9.61703 21.957 9.61179 22.5452 9.62031C22.724 9.62292 22.7948 9.57314 22.7928 9.38188C22.7843 8.52118 22.7974 7.66048 22.7849 6.79978C22.7777 6.32555 22.4679 6.02751 21.9969 6.02358C21.1146 6.01638 20.2317 6.02751 19.3493 6.01638C19.1437 6.01376 19.0893 6.06354 19.1207 6.27183C19.2812 7.33493 19.1738 8.37904 18.8463 9.39956C18.7841 9.5941 18.845 9.62031 19.0153 9.61834C19.6035 9.61244 20.1917 9.61637 20.7806 9.61637L20.7799 9.61703ZM3.89542 9.61703C4.2786 9.61703 4.59563 9.60262 4.91004 9.62162C5.16812 9.63734 5.22642 9.57707 5.14192 9.31637C4.82096 8.32729 4.74694 7.31201 4.89563 6.28362C4.9238 6.08777 4.89629 6.01114 4.6762 6.01703C4.11026 6.03144 3.54301 6.01441 2.97642 6.02489C2.07118 6.04192 1.3107 6.74672 1.24061 7.62052C1.16201 8.60437 1.77511 9.41266 2.72227 9.57969C3.13428 9.6524 3.54891 9.59803 3.89411 9.61769L3.89542 9.61703Z" fill="#2952A1"/>
<path d="M7.99066 26.3369C7.04154 26.3369 6.09176 26.3389 5.14263 26.3363C4.69263 26.3349 4.43979 26.1175 4.43848 25.7435C4.43717 25.3681 4.68935 25.1494 5.1387 25.1487C7.05922 25.1467 8.97975 25.1474 10.9003 25.1487C11.3516 25.1487 11.6038 25.3649 11.6044 25.7395C11.6051 26.1135 11.3509 26.3349 10.9042 26.3363C9.9328 26.3389 8.96206 26.3369 7.99066 26.3369Z" fill="#2952A1"/>
<path d="M20.9928 18.002C21.9839 18.0052 22.783 18.7998 22.7876 19.7862C22.7922 20.7786 21.9662 21.5941 20.9686 21.5836C19.9802 21.5731 19.1882 20.7681 19.1941 19.779C19.2 18.7926 20.0031 17.9993 20.9928 18.0026V18.002ZM21.583 19.7797C21.5784 19.4509 21.2981 19.183 20.9692 19.1941C20.6561 19.2046 20.3922 19.4725 20.3882 19.7843C20.3843 20.1118 20.6568 20.383 20.9895 20.3816C21.3269 20.3803 21.5876 20.1157 21.583 19.7803V19.7797Z" fill="#2952A1"/>
</g>
<defs>
<clipPath id="clip0_3467_5992">
<rect width="30" height="30" fill="white"/>
</clipPath>
</defs>
</svg>
